<?xml version="1.0" encoding="UTF-8"?>
<svg version="1.1" xmlns="http://www.w3.org/2000/svg" width="1254" height="1254">

<path d="M0 0 C2.41678239 2.32379546 3.81775079 4.32471667 5.2421875 7.375 C5.66201904 8.26437256 6.08185059 9.15374512 6.5144043 10.07006836 C7.18789917 11.52038452 7.18789917 11.52038452 7.875 13 C8.85757482 15.08487024 9.84066972 17.16949542 10.82421875 19.25390625 C11.34032715 20.35234863 11.85643555 21.45079102 12.38818359 22.58251953 C15.12363557 28.38240695 17.90570402 34.15973509 20.6875 39.9375 C21.19716309 41.00033203 21.70682617 42.06316406 22.23193359 43.15820312 C26.39610971 51.8188388 30.68584531 60.41348411 35 69 C35.72165125 70.43722928 36.44324903 71.8744854 37.16479492 73.31176758 C37.52635178 74.03193558 37.88790863 74.75210358 38.26042175 75.49409485 C39.72332408 78.4087075 41.18529091 81.32378872 42.64697266 84.23901367 C43.38878783 85.7175541 44.13131307 87.19573848 44.87451172 88.67358398 C48.7515576 96.38463497 52.54988915 104.08604202 56 112 C56.99414593 113.67016516 57.9935725 115.33720673 59 117 C59.6928422 118.61875059 60.38454493 120.23799972 61.07006836 121.85986328 C62.9402368 126.16385291 64.98265201 130.38856923 67 134.625 C67.43828125 135.553125 67.8765625 136.48125 68.328125 137.4375 C70.79548883 142.63992756 70.79548883 142.63992756 73.625 147.6484375 C74.83211914 149.71288557 75.6061387 151.53661408 76.40625 153.7734375 C78.03690651 158.29153889 80.21268391 162.40960384 82.5 166.625 C91.16203302 182.85049798 99.22740441 199.36001887 107.125 215.96875 C109.11044134 220.14256452 111.1117162 224.30829407 113.125 228.46875 C118.49226725 239.56186121 123.79240532 250.67699906 128.9375 261.875 C135.21507185 275.51782227 141.83608175 288.98696127 148.45675659 302.46575928 C154.6159598 315.01035808 160.67779483 327.58271722 166.50732422 340.28417969 C170.5618105 349.10778713 174.77167189 357.85054061 179.01617432 366.58358765 C183.07761613 374.9458669 187.03095117 383.34817423 190.875 391.8125 C194.06168169 398.82672531 197.32158942 405.77861432 200.80664062 412.64916992 C208.77352922 428.38537147 216.30796076 444.33759051 223.54248047 460.42211914 C226.21467528 466.33990132 229.02074158 472.1677654 231.9621582 477.95581055 C235.14334441 484.22820198 238.15515394 490.57774118 241.1484375 496.94165039 C243.59865499 502.12934871 246.12544837 507.27495401 248.69921875 512.40234375 C253.04788385 521.0660056 257.31097024 529.77046115 261.55639648 538.48510742 C262.82681171 541.09186613 264.09989536 543.69731119 265.37304688 546.30273438 C266.19287009 547.98429615 267.01253736 549.66593396 267.83203125 551.34765625 C268.20705276 552.11441177 268.58207428 552.8811673 268.96846008 553.67115784 C271.10670363 558.06800107 273.08974244 562.49977184 275 567 C275.63011163 568.3201198 276.2730744 569.6343133 276.9375 570.9375 C277.27523438 571.60523438 277.61296875 572.27296875 277.9609375 572.9609375 C278.30382812 573.63382813 278.64671875 574.30671875 279 575 C279.68952851 576.3531349 280.37704887 577.70729509 281.0625 579.0625 C281.36285156 579.65160156 281.66320312 580.24070312 281.97265625 580.84765625 C282.81291455 582.60804532 283.59228518 584.39738279 284.35351562 586.19335938 C286.17830846 590.48498071 288.22494282 594.6592553 290.28125 598.84375 C290.69103088 599.68131332 291.10081177 600.51887665 291.52301025 601.38182068 C292.39596769 603.16592099 293.26962212 604.94968041 294.1439209 606.73312378 C296.42837038 611.39420065 298.70625284 616.05848444 300.984375 620.72265625 C301.65161591 622.08844566 301.65161591 622.08844566 302.33233643 623.48182678 C310.21153453 639.61675479 317.87969882 655.84945614 325.5163269 672.10025024 C333.48557458 689.05880361 341.52939378 705.9816844 349.57666016 722.90332031 C351.97302986 727.94271828 354.36766269 732.98294005 356.76171875 738.0234375 C357.15312546 738.84750092 357.54453217 739.67156433 357.94779968 740.52059937 C359.91907157 744.67103814 361.8901401 748.82157343 363.86108398 752.97216797 C367.47658745 760.58550808 371.09349129 768.19816967 374.71647644 775.80795288 C382.57309926 792.31035768 390.41482106 808.81657111 398.07958984 825.40917969 C402.65704114 835.30270663 407.32444366 845.15254686 412 855 C419.41974855 870.62723088 426.75233597 886.29217947 434 902 C433.34 902.33 432.68 902.66 432 903 C429.57104492 901.89868164 429.57104492 901.89868164 426.48046875 900.16015625 C425.32780518 899.51739746 424.1751416 898.87463867 422.98754883 898.21240234 C421.72084362 897.49580758 420.45416131 896.77917235 419.1875 896.0625 C417.87767851 895.3293804 416.56736811 894.5971337 415.2565918 893.86572266 C412.5268417 892.34153395 409.7992561 890.81357525 407.07324219 889.28271484 C401.43388603 886.11854137 395.77451991 882.9907757 390.11227417 879.86779785 C388.30233919 878.86939506 386.49308673 877.86976269 384.68383789 876.87011719 C375.61943292 871.86691983 366.50431713 866.96098194 357.37719727 862.07324219 C350.44649645 858.3499154 343.58243776 854.52531061 336.75 850.625 C326.62187268 844.84739401 316.35999606 839.34560322 306.06152344 833.88037109 C304.78969788 833.20543315 303.51788783 832.53046599 302.24609375 831.85546875 C301.6250174 831.52587158 301.00394104 831.19627441 300.36404419 830.85668945 C292.07180429 826.45113269 283.83760835 821.9397335 275.60351562 817.42675781 C271.15460322 814.98870041 266.70275617 812.556029 262.25 810.125 C261.35506836 809.63628418 260.46013672 809.14756836 259.53808594 808.64404297 C252.29097963 804.69189272 245.02204737 800.78102283 237.75 796.875 C229.80888317 792.6092585 221.89874224 788.29771102 214.03491211 783.89135742 C207.77654633 780.39947779 201.45613994 777.02644715 195.13150024 773.65667725 C183.70090704 767.56636974 172.36919952 761.3251568 161.12109375 754.90234375 C151.80322353 749.59857179 142.34242634 744.59777476 132.8125 739.6875 C125.16479581 735.72903085 117.5681102 731.71738517 110.09130859 727.44506836 C104.25748892 724.11819018 98.35063514 720.93334574 92.4375 717.75 C83.28272251 712.81705076 74.21179386 707.75295984 65.17602539 702.60571289 C58.78993818 698.97902561 52.33858052 695.51070915 45.82470703 692.12036133 C39.35262575 688.7219216 33.16089666 684.93225926 27 681 C31.76336465 676.64904787 37.37912629 674.16720227 43.125 671.375 C45.30416197 670.30105345 47.48253954 669.22551388 49.66015625 668.1484375 C51.27688232 667.34937988 51.27688232 667.34937988 52.92626953 666.53417969 C57.17050788 664.41576874 61.37200127 662.22243992 65.5625 660 C66.32127441 659.59797363 67.08004883 659.19594727 67.86181641 658.78173828 C69.42511128 657.95307076 70.9882605 657.12412841 72.55126953 656.29492188 C77.02503604 653.92913348 81.51269147 651.58997227 86 649.25 C86.95108643 648.75387207 87.90217285 648.25774414 88.88208008 647.74658203 C96.49813722 643.77666412 104.12369966 639.82519445 111.75 635.875 C119.71751252 631.74660587 127.68116117 627.61129995 135.625 623.4375 C136.71506348 622.86588135 136.71506348 622.86588135 137.82714844 622.28271484 C142.92706351 619.59672775 147.97112094 616.81655358 153 614 C152.35697623 609.71702028 150.86531763 606.25633773 149.0078125 602.35546875 C148.5555706 601.39896675 148.5555706 601.39896675 148.0941925 600.42314148 C147.44653626 599.05477806 146.79639777 597.68758726 146.14401245 596.32147217 C144.76137534 593.42601283 143.39073276 590.5249331 142.01957703 587.62402344 C141.32624529 586.1572744 140.63232532 584.69080329 139.93782043 583.22460938 C137.05342473 577.13111519 134.23162213 571.01041548 131.4375 564.875 C122.11751618 544.45905477 112.55353535 524.15602829 102.98892212 503.85385132 C97.54806928 492.30464616 92.13725772 480.74173035 86.74414062 469.17016602 C83.36363744 461.91788734 79.97140399 454.67143694 76.55493164 447.43603516 C74.65461932 443.40726934 72.78912621 439.3638388 70.9375 435.3125 C68.84896095 430.75982632 66.64360946 426.27741263 64.375 421.8125 C61.92179855 416.96013238 59.76937669 412.10256533 57.828125 407.02734375 C57.00404108 404.86314728 57.00404108 404.86314728 55.5 402.5 C54.04301808 400.0716968 53.08017355 397.76223963 52.0625 395.125 C50.6545124 391.49528292 49.06214686 388.25483945 47.05175781 384.93334961 C45.8969031 382.81048646 45.03984958 380.67469309 44.17578125 378.41796875 C42.07842405 373.09554912 39.68079106 367.95905855 37.1875 362.8125 C36.36777951 361.11101899 35.54878798 359.40918663 34.73046875 357.70703125 C34.29726318 356.80621826 33.86405762 355.90540527 33.41772461 354.97729492 C31.8250544 351.6326052 30.2631907 348.27402678 28.703125 344.9140625 C25.10073402 337.1669718 21.38693372 329.47575608 17.64819336 321.79370117 C16.56532455 319.56830472 15.48468453 317.34183626 14.40429688 315.11523438 C13.68763236 313.64056067 12.97083963 312.16594927 12.25390625 310.69140625 C11.94530167 310.05546036 11.63669708 309.41951447 11.31874084 308.76429749 C11.00158615 308.11319504 10.68443146 307.46209259 10.35766602 306.79125977 C10.0331974 306.09499985 9.70872879 305.39873993 9.3744278 304.68138123 C8.00399423 301.89217174 8.00399423 301.89217174 6.05168819 299.01895046 C-1.65015383 286.66992166 -1.1065083 274.13276375 -0.92852497 259.96365499 C-0.89357526 256.46561718 -0.90569615 252.96767653 -0.91174316 249.46951294 C-0.91591305 243.42681266 -0.89107837 237.38480999 -0.84584045 231.34228516 C-0.78048013 222.60622305 -0.75995415 213.870494 -0.74993652 205.13421392 C-0.73248089 190.95614732 -0.6793877 176.77845152 -0.60351562 162.60058594 C-0.5299443 148.83823485 -0.4733854 135.07598493 -0.43945312 121.31347656 C-0.43735134 120.4633994 -0.43524955 119.61332224 -0.43308407 118.73748517 C-0.42264284 114.47237157 -0.4125334 110.20725727 -0.40258884 105.94214249 C-0.3198216 70.62783082 -0.17906337 35.31394978 0 0 Z " fill="#FAFAFA" transform="translate(669,159)"/>
<path d="M0 0 C0.33 0 0.66 0 1 0 C1.1833334 36.30668171 1.32418986 72.61328189 1.40852264 108.92033163 C1.41852762 113.21210661 1.42888227 117.50388068 1.43945312 121.7956543 C1.44155161 122.65002608 1.44365009 123.50439786 1.44581217 124.3846597 C1.48057008 138.19686869 1.54361728 152.00880979 1.61722237 165.82086015 C1.69218187 180.00596153 1.73650124 194.19092315 1.75270796 208.37621444 C1.76365471 217.12102134 1.79815697 225.8650709 1.86333174 234.60964452 C1.90580198 240.61591591 1.91836003 246.62179898 1.90801102 252.62820942 C1.9029146 256.08771639 1.91041349 259.54590545 1.9536438 263.00517464 C2.11551839 278.19686667 1.89020684 289.33472049 -7 302 C-7.90972469 303.74930195 -8.79254361 305.51341652 -9.625 307.30078125 C-10.01300781 308.11482422 -10.40101563 308.92886719 -10.80078125 309.76757812 C-11.39439453 311.02731445 -11.39439453 311.02731445 -12 312.3125 C-12.44730469 313.25416016 -12.89460938 314.19582031 -13.35546875 315.16601562 C-18.28698102 325.56449927 -23.17463772 335.9839887 -28.06713867 346.40087891 C-32.54624619 355.93416187 -37.06069382 365.44922121 -41.63867188 374.93554688 C-43.87482033 379.58259861 -45.98440176 384.25359125 -48 389 C-48.9494928 390.95483812 -49.93916431 392.88238432 -50.9375 394.8125 C-51.79641288 396.58085005 -52.58806405 398.38177079 -53.35791016 400.19067383 C-54.93290827 403.87952916 -56.6182301 407.51248267 -58.3359375 411.13671875 C-58.65187363 411.80614502 -58.96780975 412.47557129 -59.2933197 413.1652832 C-59.96944583 414.59783401 -60.64606877 416.03015042 -61.32315063 417.46224976 C-63.11574337 421.25458691 -64.90365474 425.04912876 -66.69140625 428.84375 C-67.05282211 429.61079758 -67.41423798 430.37784515 -67.78660583 431.1681366 C-71.03532402 438.06705901 -74.26453378 444.97493797 -77.4776001 451.89053345 C-78.2927768 453.64504949 -79.1090217 455.3990691 -79.92529297 457.15307617 C-82.36239497 462.40517769 -84.74012005 467.66868101 -87 473 C-88.42296779 476.23570656 -89.86658382 479.46199468 -91.3125 482.6875 C-91.67794922 483.50927734 -92.04339844 484.33105469 -92.41992188 485.17773438 C-94.96124743 490.84414421 -97.68515675 496.39775272 -100.47973633 501.94311523 C-102.98357912 506.97774115 -105.33328823 512.08161214 -107.6875 517.1875 C-108.52719024 519.00218601 -109.36688491 520.81686996 -110.20669556 522.63150024 C-111.13106611 524.62954802 -112.05460419 526.62797905 -112.97802734 528.62646484 C-116.40186349 536.03458587 -119.83608765 543.43789914 -123.26818848 550.8421936 C-124.49776095 553.49516893 -125.72696708 556.14831368 -126.95605469 558.80151367 C-130.62138812 566.71341122 -134.28828396 574.62456191 -137.96484375 582.53125 C-138.26617218 583.17944702 -138.56750061 583.82764404 -138.87796021 584.4954834 C-140.24841884 587.44339628 -141.61960088 590.39096785 -142.9921875 593.33789062 C-143.91679726 595.32617746 -144.83755551 597.31626253 -145.75341797 599.30859375 C-146.57374418 601.0797015 -147.41093705 602.84311033 -148.26611328 604.59765625 C-148.64364746 605.39042969 -149.02118164 606.18320312 -149.41015625 607 C-149.74281494 607.680625 -150.07547363 608.36125 -150.41821289 609.0625 C-151.16047133 611.53441062 -151.09101156 612.65550487 -150 615 C-147.94979185 616.50163189 -147.94979185 616.50163189 -145.3203125 617.6640625 C-144.33925537 618.14069336 -143.35819824 618.61732422 -142.34741211 619.10839844 C-140.75231812 619.85911621 -140.75231812 619.85911621 -139.125 620.625 C-136.89894096 621.70408322 -134.67368747 622.78482971 -132.44921875 623.8671875 C-130.792854 624.66721191 -130.792854 624.66721191 -129.10302734 625.48339844 C-125.001363 627.48808285 -120.9644645 629.60015734 -116.9375 631.75 C-108.4933867 636.23506392 -100.00021228 640.62258843 -91.5 645 C-82.39698958 649.68921676 -73.3036268 654.39402817 -64.25390625 659.18554688 C-59.35280871 661.77538083 -54.43448009 664.33035286 -49.5078125 666.87109375 C-48.84913177 667.21092789 -48.19045105 667.55076202 -47.5118103 667.90089417 C-44.21147201 669.60319374 -40.90999161 671.303228 -37.60693359 673.00024414 C-36.39417654 673.62510611 -35.18144739 674.25002225 -33.96875 674.875 C-32.89044922 675.42929687 -31.81214844 675.98359375 -30.70117188 676.5546875 C-28 678 -28 678 -25 680 C-25 680.66 -25 681.32 -25 682 C-39.44601215 689.98388427 -53.89507682 697.96084919 -68.39453125 705.84741211 C-73.82331683 708.80322926 -79.23018886 711.79522071 -84.625 714.8125 C-92.8876038 719.42769911 -101.22993322 723.89196156 -109.57733154 728.35116577 C-118.38029645 733.05387583 -127.16089149 737.79510586 -135.91748047 742.58374023 C-145.58549149 747.8706297 -155.27661927 753.11457362 -164.96777344 758.35888672 C-169.97925759 761.07122138 -174.98957329 763.78571261 -180 766.5 C-181.99999432 767.58334382 -183.99999432 768.66667715 -186 769.75 C-186.99 770.28625 -187.98 770.8225 -189 771.375 C-198 776.25 -198 776.25 -200.9987793 777.87426758 C-203.00292781 778.95989557 -205.00699656 780.0456708 -207.01098633 781.1315918 C-211.94687764 783.80601736 -216.88403398 786.47804389 -221.82421875 789.14453125 C-233.36764077 795.37921373 -244.87422943 801.67745363 -256.35534668 808.02590942 C-267.60126974 814.24321143 -278.89197793 820.37526037 -290.19726562 826.48388672 C-300.77016578 832.20319943 -311.32276029 837.95990787 -321.83984375 843.78125 C-336.2635625 851.76378244 -350.73459293 859.64231741 -365.27734375 867.40625 C-374.57651602 872.37150346 -383.84395835 877.39494515 -393.10644531 882.42822266 C-396.05689685 884.03090634 -399.00891073 885.63068876 -401.9609375 887.23046875 C-410.71141508 891.98058214 -419.43968459 896.72350799 -427.953125 901.890625 C-430 903 -430 903 -432 903 C-430.47070685 897.99682989 -428.40481284 893.41700612 -426.140625 888.71875 C-425.76000916 887.92142456 -425.37939331 887.12409912 -424.98724365 886.3026123 C-424.17006402 884.59149383 -423.35135173 882.88110662 -422.53125 881.17138672 C-420.3521998 876.62810027 -418.18455874 872.0793723 -416.015625 867.53125 C-415.36466858 866.16734131 -415.36466858 866.16734131 -414.70056152 864.77587891 C-411.08950466 857.20412046 -407.53278012 849.60857537 -404 842 C-398.20166884 829.52682586 -392.31177182 817.09833243 -386.40103149 804.67807007 C-380.7979866 792.90433007 -375.22610255 781.11668178 -369.6875 769.3125 C-364.79439224 758.88438741 -359.84122857 748.48838139 -354.8125 738.125 C-349.70249827 727.5933584 -344.72825548 717.00604872 -339.82348633 706.37744141 C-335.60118382 697.24588719 -331.25147205 688.18053799 -326.8659668 679.12646484 C-323.07816986 671.28788461 -319.39246094 663.40702537 -315.75 655.5 C-310.45346423 644.01119079 -304.96092566 632.62661104 -299.40563965 621.26104736 C-294.48265075 611.18548442 -289.67816301 601.06643843 -285 590.875 C-280.89336137 581.93639109 -276.62108715 573.1471878 -271.90234375 564.515625 C-269.06404029 559.27030033 -266.27806942 554.05608007 -264.25 548.4375 C-262.56281213 544.10749051 -260.481582 540.06807122 -258.25 536 C-255.28594762 530.58206153 -252.64072429 525.10451696 -250.1875 519.4375 C-247.22739251 512.61740646 -244.04034448 505.94824007 -240.6875 499.3125 C-233.70084616 485.47290242 -227.01641343 471.49728049 -220.4765625 457.44140625 C-220.17287247 456.7890097 -219.86918243 456.13661316 -219.55628967 455.46444702 C-218.07429696 452.27949043 -216.59525709 449.09322351 -215.12182617 445.90429688 C-212.20774483 439.62400072 -209.22130932 433.39374606 -206.10546875 427.2109375 C-202.1434552 419.34837398 -198.36578742 411.4053342 -194.61819458 403.43875122 C-188.34518596 390.10811569 -182.00560508 376.81174588 -175.5625 363.5625 C-174.88980852 362.17871224 -174.21711969 360.79492319 -173.54443359 359.41113281 C-172.57683562 357.42081143 -171.60922985 355.43049388 -170.64147949 353.44024658 C-158.72211775 328.9170026 -147.14230806 304.22739529 -135.49067688 279.57617188 C-126.63236122 260.83596896 -117.72164538 242.12429384 -108.68115234 223.47119141 C-106.09349577 218.12827809 -103.51474482 212.78107037 -100.93533325 207.43417358 C-97.01970653 199.31802033 -93.10008347 191.20382143 -89.171875 183.09375 C-88.20572128 181.0988706 -87.23957417 179.103988 -86.2734375 177.10910034 C-85.63481179 175.79049481 -84.9961402 174.4719115 -84.35742188 173.15335083 C-80.23216315 164.63583451 -76.13348531 156.10611821 -72.0625 147.5625 C-68.82159391 140.76290612 -65.52698179 133.99735319 -62.12719727 127.27587891 C-58.9882956 121.04245288 -56.00127978 114.73804577 -53 108.4375 C-49.0736274 100.20085374 -45.03227585 92.07349735 -40.62109375 84.0859375 C-39.21872062 81.41635973 -38.01775539 78.73153806 -36.85571289 75.95166016 C-35.07373791 71.88743533 -33.00532705 67.9572965 -31 64 C-26.68680586 55.43022284 -22.48437653 46.81511363 -18.36206055 38.15209961 C-14.37535007 29.77439452 -10.3490718 21.41625815 -6.3125 13.0625 C-5.99614594 12.40764618 -5.67979187 11.75279236 -5.35385132 11.07809448 C-3.56980543 7.38512008 -1.78518765 3.69242265 0 0 Z " fill="#FBFBFB" transform="translate(584,159)"/>
<path d="M0 0 C2.97 0 5.94 0 9 0 C9 12.54 9 25.08 9 38 C10.32 38.33 11.64 38.66 13 39 C18.50461979 42.21102821 22.59414649 46.02684646 25 52 C25.265625 55.09375 25.265625 55.09375 25.25 58.5 C25.25773437 60.18609375 25.25773437 60.18609375 25.265625 61.90625 C25 65 25 65 23.921875 67.09375 C22.63739912 69.74978487 23.24347873 71.18535876 24 74 C25.03308798 76.05083753 25.03308798 76.05083753 26.38916016 77.98901367 C26.88703033 78.73716843 27.38490051 79.48532318 27.89785767 80.25614929 C28.43945526 81.05204971 28.98105286 81.84795013 29.5390625 82.66796875 C30.09814301 83.50282303 30.65722351 84.33767731 31.23324585 85.1978302 C33.02298403 87.8661923 34.8239011 90.52679667 36.625 93.1875 C37.81452021 94.95850225 39.00332991 96.72998193 40.19140625 98.50195312 C45.25011805 106.03501804 50.33512218 113.54621796 55.56738281 120.96020508 C60.18929888 127.54100071 64.58351703 134.28056249 69 141 C69.55107422 141.8357959 70.10214844 142.6715918 70.66992188 143.53271484 C85.41011829 165.97956308 97.87254392 189.47965355 109.9375 213.4375 C110.43838135 214.42695618 110.9392627 215.41641235 111.45532227 216.43585205 C112.88413597 219.26404058 114.30135188 222.09772232 115.71484375 224.93359375 C116.14844711 225.78971756 116.58205048 226.64584137 117.02879333 227.52790833 C117.61770103 228.71956856 117.61770103 228.71956856 118.21850586 229.93530273 C118.56409042 230.62663803 118.90967499 231.31797333 119.26573181 232.03025818 C120 234 120 234 120 238 C120.66 238 121.32 238 122 238 C122.515625 239.19625 123.03125 240.3925 123.5625 241.625 C124.90311439 244.66437125 126.31476595 247.65112748 127.82421875 250.609375 C128.14124756 251.23118652 128.45827637 251.85299805 128.78491211 252.49365234 C129.42235752 253.73629194 130.0650108 254.97627538 130.71313477 256.21337891 C132.15637132 259.02751328 133 260.78777479 133 264 C133.556875 263.95359375 134.11375 263.9071875 134.6875 263.859375 C140.7064943 263.57469284 145.07221408 264.42839046 150 268 C154.88475717 272.76794776 157.17097394 276.15705199 157.4375 283.0625 C157.36185291 289.90856166 155.88973334 294.17050978 151 299 C147.01978438 302.11527006 143.05042993 304.24887378 137.9375 304.5 C133.18676794 303.89673244 127.83041825 303.15313662 124.58203125 299.33203125 C123.05591684 297.74455992 123.05591684 297.74455992 120.73828125 298.08203125 C117.30869154 299.23175105 114.29695298 300.87298836 111.1875 302.6875 C110.5059082 303.07760254 109.82431641 303.46770508 109.12207031 303.86962891 C101.7643394 308.09554958 94.4570068 312.40997241 87.13623047 316.69946289 C79.94857939 320.89837418 72.69850654 324.96138285 65.39013672 328.94555664 C59.18030804 332.3355205 53.0176277 335.80227115 46.875 339.3125 C46.03428955 339.79219238 45.1935791 340.27188477 44.32739258 340.76611328 C39.17368126 343.71912798 34.08478163 346.7585419 29.03564453 349.88745117 C27 351 27 351 25 351 C25.04640625 351.845625 25.0928125 352.69125 25.140625 353.5625 C25.39500675 361.55735498 25.14095671 367.46355866 19.609375 373.5234375 C14.4966947 378.17866746 9.03358717 379.50836902 2.30078125 379.3046875 C-2.67872016 378.64526286 -6.41526238 376.74321139 -9.796875 373.0234375 C-15.02823725 366.17284408 -15.02823725 366.17284408 -14.92749023 361.98828125 C-14.68068903 354.79502915 -14.68068903 354.79502915 -18.03564453 348.765625 C-20.96414941 346.90943292 -23.90627983 345.43551399 -27.0625 344 C-29.37000772 342.83503344 -31.6759623 341.66698613 -33.98046875 340.49609375 C-35.15657715 339.91843262 -36.33268555 339.34077148 -37.54443359 338.74560547 C-42.79955041 336.09094352 -47.82442156 333.0831687 -52.875 330.0625 C-62.61724196 324.32606627 -72.47212279 318.80988381 -82.37475586 313.35742188 C-89.67468823 309.32825573 -96.89894677 305.19931433 -103.97827148 300.79199219 C-107.37250926 298.72829562 -108.90936592 298 -113 298 C-114.82758779 299.03011009 -114.82758779 299.03011009 -116.5 300.4375 C-120.86979789 303.92340696 -125.13131368 304.43133095 -130.62890625 304.33203125 C-136.68043464 303.48461788 -140.82700032 299.67081692 -144.5 295 C-147.99993496 289.29108969 -147.98748143 283.49161705 -147 277 C-144.5176607 271.53885353 -139.42151909 266.71075954 -134 264 C-132.29297265 263.93003986 -130.58331997 263.91559846 -128.875 263.9375 C-127.96492188 263.94652344 -127.05484375 263.95554687 -126.1171875 263.96484375 C-125.06917969 263.98224609 -125.06917969 263.98224609 -124 264 C-123.89840576 263.30543701 -123.79681152 262.61087402 -123.69213867 261.89526367 C-122.87563832 258.47978652 -121.53871666 255.8015754 -119.92578125 252.67578125 C-119.19385171 251.24219532 -118.46299655 249.80806062 -117.73291016 248.37353516 C-117.30850647 247.54243225 -116.88410278 246.71132935 -116.44683838 245.8550415 C-113.80080928 240.63364083 -111.21243661 235.38344247 -108.61364365 230.13842392 C-106.54611464 225.9693122 -104.47098692 221.80397767 -102.39678764 217.63818169 C-100.61541748 214.05975941 -98.83629196 210.48025796 -97.06225586 206.89819336 C-86.1329451 184.83667464 -74.62618567 163.53336446 -61 143 C-60.4626825 142.18865601 -59.92536499 141.37731201 -59.37176514 140.54138184 C-55.24175875 134.30938469 -51.09140438 128.09108291 -46.9375 121.875 C-45.12268134 119.15653619 -43.30819213 116.43785272 -41.49375916 113.71913147 C-40.31708322 111.95671653 -39.13981601 110.19469619 -37.96192932 108.43309021 C-35.33269967 104.50036716 -32.70887563 100.56452776 -30.10717773 96.61352539 C-26.39395957 90.9832384 -22.68557963 85.43851301 -18.41162109 80.21118164 C-14.30551973 75.26255061 -14.30551973 75.26255061 -13.04296875 69.1484375 C-13.84977185 66.64090863 -14.86319147 64.37228345 -16 62 C-16.77978057 55.76175543 -15.17668655 50.36507061 -12 45 C-8.3373485 41.27730503 -5.07021054 39.26755264 0 38 C0 25.46 0 12.92 0 0 Z " fill="#F7F7F7" transform="translate(623,461)"/>
<path d="M0 0 C1.39697266 1.52783203 1.39697266 1.52783203 2.6640625 3.5078125 C3.14117676 4.23959717 3.61829102 4.97138184 4.10986328 5.7253418 C4.6098584 6.517229 5.10985352 7.30911621 5.625 8.125 C6.6977577 9.78005097 7.77067672 11.43499738 8.84375 13.08984375 C9.37613281 13.91983887 9.90851562 14.74983398 10.45703125 15.60498047 C12.63966357 18.99289551 14.88037309 22.34049295 17.125 25.6875 C17.95216086 26.92816018 18.77898609 28.16904418 19.60546875 29.41015625 C21.12578332 31.69093327 22.64963365 33.96920208 24.17578125 36.24609375 C35.84030061 53.65708544 47.45339944 71.12639909 58.5 88.9375 C59.02118408 89.77619629 59.54236816 90.61489258 60.0793457 91.47900391 C62.59695327 95.57270917 64.90311243 99.6709418 67 104 C68.56696006 107.02943185 70.15955793 110.04534228 71.75 113.0625 C72.19029541 113.89942383 72.63059082 114.73634766 73.08422852 115.59863281 C75.66786443 120.50166381 78.28644615 125.38313994 80.9375 130.25 C82.65355652 133.4174875 84.30907538 136.54625117 85.6875 139.875 C86.90741796 142.77956657 88.29797215 145.35335451 89.9375 148.03125 C91 150 91 150 92.35888672 153.20849609 C93.87074751 156.76040017 95.5632949 160.19451513 97.3203125 163.6328125 C97.94423872 164.8631655 98.56792979 166.09363777 99.19140625 167.32421875 C100.16096351 169.23231137 101.13237001 171.1393922 102.10791016 173.04443359 C103.05916669 174.90450965 104.00274831 176.76832008 104.9453125 178.6328125 C105.50750488 179.73512207 106.06969727 180.83743164 106.64892578 181.97314453 C107.87899706 184.72891318 108.6832416 187.006896 109 190 C107.8203125 191.94921875 107.8203125 191.94921875 106.125 193.6875 C103.76439535 196.13102181 103.76439535 196.13102181 102 199 C102.15662109 200.22203125 102.15662109 200.22203125 102.31640625 201.46875 C102.6192614 205.1991563 102.4025719 207.50632091 101 211 C96.73546401 214.94257377 90.94480101 217.13543901 85.76416016 219.61914062 C80.91078555 222.04368459 76.28629545 224.85399237 71.625 227.625 C61.66649645 233.46980844 51.66121898 239.23053004 41.61767578 244.92773438 C36.19322728 248.00842613 30.78598919 251.11018623 25.43258667 254.31318665 C23.03347285 255.74848798 20.62806037 257.17306292 18.22259521 258.59768677 C16.53232938 259.60571956 14.85221712 260.63071576 13.17236328 261.65600586 C12.1564209 262.25678955 11.14047852 262.85757324 10.09375 263.4765625 C9.20365234 264.01361816 8.31355469 264.55067383 7.39648438 265.10400391 C6.60564453 265.39968262 5.81480469 265.69536133 5 266 C1 264 -3 262 -7 260 C-7 247.13 -7 234.26 -7 221 C-3.7 220.67 -0.4 220.34 3 220 C19.89621899 215.30013219 33.38392285 205.84482636 42.43359375 190.83203125 C51.1423677 175.08674168 53.3200775 159.06730536 50.3828125 141.2578125 C49.48297455 138.31940362 48.39129537 135.73923592 47 133 C46.45214844 131.86691406 45.90429688 130.73382812 45.33984375 129.56640625 C37.63018584 114.45727253 25.27005479 103.9416686 9.375 98.125 C3.99323961 96.74111876 -1.51876666 95.91353889 -7 95 C-7 63.65 -7 32.3 -7 0 C-3.84766037 -1.05077988 -2.99010318 -1.18113871 0 0 Z " fill="#060607" transform="translate(639,539)"/>
<path d="M0 0 C2.97 0.495 2.97 0.495 6 1 C6 32.35 6 63.7 6 96 C1.05 96.99 -3.9 97.98 -9 99 C-25.28118421 105.0159661 -38.16361589 116.5862858 -46 132 C-53.3219225 148.93317927 -54.43177479 164.56395433 -47.76953125 181.86328125 C-40.7726807 198.7275842 -29.89881918 209.85073319 -13.55859375 217.640625 C-6.97740038 220.34458639 -1.05732425 221.46763609 6 222 C6.22311734 227.44406318 6.38606904 232.88544877 6.49438477 238.33300781 C6.53954435 240.18406536 6.60089139 242.0348036 6.67895508 243.88476562 C7.30521818 259.11155483 7.30521818 259.11155483 4.16748047 263.65136719 C1.66741361 265.49429459 0.06950296 266.49329403 -3 267 C-7.17146463 266.00379873 -10.5444278 264.25692298 -14.17578125 262.015625 C-15.15611328 261.41709717 -16.13644531 260.81856934 -17.14648438 260.2019043 C-18.19126953 259.55777588 -19.23605469 258.91364746 -20.3125 258.25 C-29.11908099 252.88843013 -37.98306303 247.6904412 -47 242.6875 C-54.58550523 238.47669684 -62.12432005 234.21343301 -69.57836914 229.77416992 C-76.81449657 225.48029174 -84.16023547 221.38044681 -91.51220703 217.28881836 C-92.45563965 216.7603833 -93.39907227 216.23194824 -94.37109375 215.6875 C-95.21599365 215.21699219 -96.06089355 214.74648438 -96.93139648 214.26171875 C-99 213 -99 213 -101 211 C-101.2734375 208.86328125 -101.2734375 208.86328125 -101.375 206.3125 C-101.79196028 201.16750802 -103.02250169 198.20352702 -106 194 C-106.99 193.34 -107.98 192.68 -109 192 C-108.49707241 186.30508464 -106.90679508 182.15395517 -104.25 177.125 C-103.709198 176.07119141 -103.709198 176.07119141 -103.1574707 174.99609375 C-100.87945253 170.58380346 -98.47436946 166.25309039 -96.01171875 161.94140625 C-94.98644474 159.97398855 -94.23000597 158.03072153 -93.5 155.9375 C-92.49092737 153.04710552 -91.24761272 150.68083966 -89.5625 148.125 C-87.77379988 145.39770943 -86.4672466 142.81448096 -85.3515625 139.75390625 C-82.68005018 132.92455158 -79.29974919 126.4742862 -75.92944336 119.97045898 C-74.82539062 117.83740496 -73.73157605 115.69933005 -72.63867188 113.56054688 C-66.25487646 101.14330209 -59.20970448 89.18424545 -51.5625 77.5 C-50.96211914 76.57380859 -50.96211914 76.57380859 -50.34960938 75.62890625 C-47.45805302 71.18374351 -44.51590894 66.77272911 -41.5703125 62.36328125 C-37.32927309 56.01325498 -33.12213454 49.64135212 -28.92578125 43.26171875 C-28.30713699 42.32147858 -27.68849274 41.3812384 -27.05110168 40.4125061 C-24.48944174 36.51869396 -21.92819377 32.62461361 -19.36889648 28.72924805 C-17.47251432 25.84336581 -15.57428169 22.95870776 -13.67578125 20.07421875 C-13.10894119 19.21044113 -12.54210114 18.34666351 -11.95808411 17.45671082 C-8.07626651 11.56278083 -4.07495175 5.76198207 0 0 Z " fill="#060607" transform="translate(617,538)"/>
<path d="M0 0 C5.49558344 3.16617976 10.44036617 8.55784347 12.75 14.5 C13.63877527 21.57278003 13.67850443 27.92972353 9.30859375 33.78515625 C4.81428613 38.73002103 0.36249721 43.06634642 -6.53515625 43.71484375 C-13.70588136 43.98523308 -18.47264664 42.40602681 -24.4375 38.3125 C-29.67263915 33.07736085 -31.49031778 28.55636099 -31.875 21.125 C-31.62238431 14.31227049 -29.82610785 9.56934104 -25.25 4.5 C-17.84337511 -1.95009741 -9.20218114 -3.94379192 0 0 Z " fill="#070708" transform="translate(637.25,676.5)"/>
<path d="M0 0 C0.33 0 0.66 0 1 0 C1 94.71 1 189.42 1 287 C0.67 287 0.34 287 0 287 C-0.33 195.26 -0.66 103.52 -1 9 C-1.99 9.33 -2.98 9.66 -4 10 C-2.8905928 6.51329166 -1.73662334 3.22515763 0 0 Z " fill="#BEBDBD" transform="translate(584,159)"/>
<path d="M0 0 C0.33 0.66 0.66 1.32 1 2 C1.66 2.33 2.32 2.66 3 3 C2.56042969 3.391875 2.12085938 3.78375 1.66796875 4.1875 C-0.28372634 6.30831152 -1.40895177 8.41986663 -2.6875 11 C-3.12449219 11.86625 -3.56148438 12.7325 -4.01171875 13.625 C-5.19209202 16.03289224 -5.19209202 16.03289224 -5 19 C-6.98 19.99 -6.98 19.99 -9 21 C-7.50640515 16.15713185 -5.54966433 11.68649104 -3.375 7.125 C-2.88773437 6.09246094 -2.88773437 6.09246094 -2.390625 5.0390625 C-1.59676528 3.35794781 -0.79880442 1.67877079 0 0 Z " fill="#D6D5D6" transform="translate(281,787)"/>
<path d="M0 0 C0.66 0.33 1.32 0.66 2 1 C0.3341708 7.16356805 -2.87805286 12.48259656 -6 18 C-6.66 18 -7.32 18 -8 18 C-6.65150163 13.64029169 -4.95092154 9.68658562 -2.875 5.625 C-2.33617187 4.56539063 -1.79734375 3.50578125 -1.2421875 2.4140625 C-0.83226562 1.61742187 -0.42234375 0.82078125 0 0 Z " fill="#262526" transform="translate(572,470)"/>
<path d="M0 0 C0.85242039 2.41519111 1.10298022 3.67070279 0.328125 6.1484375 C-0.02765625 6.88320313 -0.3834375 7.61796875 -0.75 8.375 C-1.12125 9.15488281 -1.4925 9.93476562 -1.875 10.73828125 C-2.24625 11.48464844 -2.6175 12.23101563 -3 13 C-3.5775 14.175625 -4.155 15.35125 -4.75 16.5625 C-5.1625 17.366875 -5.575 18.17125 -6 19 C-6.66 19 -7.32 19 -8 19 C-6.00386732 12.2813095 -3.2708579 6.19265192 0 0 Z " fill="#272727" transform="translate(487,652)"/>
<path d="M0 0 C0.66 0 1.32 0 2 0 C0.2298836 4.76569801 -2.18776332 8.78164499 -5 13 C-5.66 13 -6.32 13 -7 13 C-7.33 13.99 -7.66 14.98 -8 16 C-8.66 15.67 -9.32 15.34 -10 15 C-8.3832351 12.4943127 -6.75724022 9.99557389 -5.125 7.5 C-4.66480469 6.78457031 -4.20460938 6.06914063 -3.73046875 5.33203125 C-3.28574219 4.65527344 -2.84101562 3.97851562 -2.3828125 3.28125 C-1.97434082 2.65283203 -1.56586914 2.02441406 -1.14501953 1.37695312 C-0.76716309 0.92255859 -0.38930664 0.46816406 0 0 Z " fill="#1A1B1B" transform="translate(596,569)"/>
<path d="M0 0 C1.1171875 1.734375 1.1171875 1.734375 2 4 C1.3203125 6.140625 1.3203125 6.140625 0.125 8.25 C-0.26429688 8.95640625 -0.65359375 9.6628125 -1.0546875 10.390625 C-1.36664062 10.92171875 -1.67859375 11.4528125 -2 12 C-2.99 12 -3.98 12 -5 12 C-3.68938409 7.76570244 -2.05643741 3.92592596 0 0 Z " fill="#262628" transform="translate(514,713)"/>
<path d="M0 0 C0.66 0.33 1.32 0.66 2 1 C0.86710786 4.68189944 -0.45584447 8.25879746 -1.9375 11.8125 C-2.25589844 12.58207031 -2.57429688 13.35164062 -2.90234375 14.14453125 C-4 16 -4 16 -7 17 C-5.24009216 11.08030998 -2.60305395 5.58365008 0 0 Z " fill="#313232" transform="translate(512,597)"/>
<path d="M0 0 C0.66 0.33 1.32 0.66 2 1 C0.42986223 6.96652354 -2.75029782 11.82909025 -6 17 C-6.33 16.34 -6.66 15.68 -7 15 C-5.92591043 12.39525962 -4.79954367 9.90033962 -3.5625 7.375 C-3.22412109 6.66859375 -2.88574219 5.9621875 -2.53710938 5.234375 C-1.69845121 3.48618616 -0.85012153 1.74264314 0 0 Z " fill="#E7E5E7" transform="translate(169,1024)"/>
<path d="M0 0 C0.66 0.99 1.32 1.98 2 3 C1.57847656 3.77085937 1.15695312 4.54171875 0.72265625 5.3359375 C0.17480469 6.33882812 -0.37304688 7.34171875 -0.9375 8.375 C-1.48277344 9.37273438 -2.02804687 10.37046875 -2.58984375 11.3984375 C-3.4149759 12.92070346 -4.22564391 14.45128783 -5 16 C-5.66 16 -6.32 16 -7 16 C-5.35433477 10.31497465 -2.70967216 5.23318364 0 0 Z " fill="#DAD9DA" transform="translate(345,655)"/>
<path d="M0 0 C0.33 1.32 0.66 2.64 1 4 C0.01 5.485 0.01 5.485 -1 7 C-1.66 7 -2.32 7 -3 7 C-3 7.99 -3 8.98 -3 10 C-3.66 10 -4.32 10 -5 10 C-5 10.99 -5 11.98 -5 13 C-5.66 13 -6.32 13 -7 13 C-7.33 13.99 -7.66 14.98 -8 16 C-8.66 15.67 -9.32 15.34 -10 15 C-5.05 7.575 -5.05 7.575 0 0 Z " fill="#1C1C1D" transform="translate(608,551)"/>
<path d="M0 0 C0.33 0 0.66 0 1 0 C1 5.28 1 10.56 1 16 C0.67 16 0.34 16 0 16 C-0.33 13.69 -0.66 11.38 -1 9 C-1.99 9.33 -2.98 9.66 -4 10 C-2.8905928 6.51329166 -1.73662334 3.22515763 0 0 Z " fill="#CFCECE" transform="translate(584,159)"/>
<path d="M0 0 C0.66 0.66 1.32 1.32 2 2 C1.34 2 0.68 2 0 2 C-0.18175781 2.63808594 -0.36351562 3.27617188 -0.55078125 3.93359375 C-0.80214844 4.75988281 -1.05351562 5.58617187 -1.3125 6.4375 C-1.55613281 7.26121094 -1.79976563 8.08492187 -2.05078125 8.93359375 C-2.36402344 9.61550781 -2.67726563 10.29742188 -3 11 C-3.99 11.33 -4.98 11.66 -6 12 C-4.68139111 7.38486888 -2.78644563 3.90102388 0 0 Z " fill="#282829" transform="translate(499,628)"/>
<path d="M0 0 C0.66 0.33 1.32 0.66 2 1 C-1.5087188 4.09592835 -4.49197399 5.74194623 -9 7 C-9.33 6.34 -9.66 5.68 -10 5 C-8.38007835 4.13624104 -6.75388139 3.28424146 -5.125 2.4375 C-4.22007812 1.96183594 -3.31515625 1.48617187 -2.3828125 0.99609375 C-1.20332031 0.50302734 -1.20332031 0.50302734 0 0 Z " fill="#E0E0E0" transform="translate(809,780)"/>
<path d="M0 0 C0.66 0.33 1.32 0.66 2 1 C1.34 1.66 0.68 2.32 0 3 C-0.66 3 -1.32 3 -2 3 C-2.4125 3.515625 -2.825 4.03125 -3.25 4.5625 C-5 6 -5 6 -8.1875 5.6875 C-9.115625 5.460625 -10.04375 5.23375 -11 5 C-7.41161963 3.13404221 -3.77010767 1.46615298 0 0 Z M-10 6 C-8 7 -8 7 -8 7 Z " fill="#29292A" transform="translate(655,754)"/>
<path d="M0 0 C2 3 2 3 2 5 C1.34 5 0.68 5 0 5 C-0.12375 5.5775 -0.2475 6.155 -0.375 6.75 C-1.00648824 9.02335767 -1.88858191 10.9253529 -3 13 C-3.66 13 -4.32 13 -5 13 C-3.58192622 8.52761347 -1.88695626 4.28853694 0 0 Z " fill="#262626" transform="translate(539,539)"/>
<path d="M0 0 C0.66 0.33 1.32 0.66 2 1 C0.35 4.3 -1.3 7.6 -3 11 C-3.99 11 -4.98 11 -6 11 C-4.02 7.37 -2.04 3.74 0 0 Z " fill="#161718" transform="translate(565,616)"/>
<path d="M0 0 C2.72426311 2.35277269 3.8141763 4.62496331 5 8 C3.02 7.34 1.04 6.68 -1 6 C-1 3 -1 3 0 0 Z " fill="#DADADA" transform="translate(1098,1054)"/>
<path d="M0 0 C2.31 0 4.62 0 7 0 C7.33 0.99 7.66 1.98 8 3 C5.03 3 2.06 3 -1 3 C-0.67 2.01 -0.34 1.02 0 0 Z " fill="#1D1E1D" transform="translate(757,722)"/>
<path d="M0 0 C0 0.33 0 0.66 0 1 C-0.90492188 1.07347656 -0.90492188 1.07347656 -1.828125 1.1484375 C-3.02695312 1.26058594 -3.02695312 1.26058594 -4.25 1.375 C-5.43335938 1.47941406 -5.43335938 1.47941406 -6.640625 1.5859375 C-9.0897978 2.01575922 -10.8005791 2.88165039 -13 4 C-15.25 3.625 -15.25 3.625 -17 3 C-11.42531458 -0.61601216 -6.39432346 -0.30720059 0 0 Z " fill="#353636" transform="translate(633,675)"/>
<path d="M0 0 C0.66 0.99 1.32 1.98 2 3 C0.625 6.6875 0.625 6.6875 -1 10 C-1.99 10 -2.98 10 -4 10 C-2.8905928 6.51329166 -1.73662334 3.22515763 0 0 Z " fill="#1B1B1C" transform="translate(581,451)"/>
<path d="M0 0 C0.66 0.66 1.32 1.32 2 2 C0.73581754 2.69965443 -0.53665402 3.38434763 -1.8125 4.0625 C-2.52019531 4.44535156 -3.22789062 4.82820312 -3.95703125 5.22265625 C-6 6 -6 6 -9 5 C-6.03 3.35 -3.06 1.7 0 0 Z " fill="#1B1B1C" transform="translate(694,786)"/>
<path d="M0 0 C1.32 0.66 2.64 1.32 4 2 C0.14243493 4.15305957 -2.55129785 5.39253254 -7 5 C-4.702779 3.25728062 -2.40133271 1.60088848 0 0 Z " fill="#1D1D1E" transform="translate(709,777)"/>
<path d="M0 0 C0.66 0 1.32 0 2 0 C0.7874262 3.72433382 -0.50859979 7.37802806 -2 11 C-2.66 11 -3.32 11 -4 11 C-3.39301257 6.87248551 -1.96189209 3.6678852 0 0 Z " fill="#252526" transform="translate(471,686)"/>
<path d="M0 0 C2.64465038 3.1254959 3.84414715 6.08788267 5 10 C2 9 2 9 0.8125 7.25 C-0.10819096 4.70039426 -0.14948718 2.69076919 0 0 Z " fill="#C6C6C5" transform="translate(982,807)"/>
<path d="M0 0 C-1 3 -1 3 -3.375 4.75 C-6 6 -6 6 -9 5 C-2.87096774 0 -2.87096774 0 0 0 Z " fill="#161617" transform="translate(678,796)"/>
<path d="M0 0 C1.07816551 4.31266203 1.07800276 4.50020587 -1 8 C-1.37125 8.7425 -1.7425 9.485 -2.125 10.25 C-2.41375 10.8275 -2.7025 11.405 -3 12 C-3.66 11.67 -4.32 11.34 -5 11 C-3.35 7.37 -1.7 3.74 0 0 Z " fill="#E5E4E5" transform="translate(175,1011)"/>
<path d="M0 0 C2.15377564 2.62198774 3.40072174 4.64404172 4 8 C2.35 7.01 0.7 6.02 -1 5 C-0.67 3.35 -0.34 1.7 0 0 Z " fill="#353537" transform="translate(743,718)"/>
<path d="M0 0 C0.66 0.33 1.32 0.66 2 1 C0.25 6.75 0.25 6.75 -2 9 C-3 6 -3 6 -1.5625 2.8125 C-1.046875 1.884375 -0.53125 0.95625 0 0 Z " fill="#161717" transform="translate(572,470)"/>
<path d="M0 0 C4.455 1.98 4.455 1.98 9 4 C4.82412255 5.39195915 2.86525224 3.82323219 -1 2 C-0.67 1.34 -0.34 0.68 0 0 Z " fill="#121213" transform="translate(996,1004)"/>
<path d="M0 0 C0.66 0.33 1.32 0.66 2 1 C2 1.66 2 2.32 2 3 C-2.43076923 5.09230769 -2.43076923 5.09230769 -5.3125 4.625 C-5.869375 4.41875 -6.42625 4.2125 -7 4 C-1.7265625 0.77734375 -1.7265625 0.77734375 0 0 Z " fill="#2F2F2F" transform="translate(340,959)"/>
<path d="M0 0 C0.66 0.33 1.32 0.66 2 1 C1.1875 3.9375 1.1875 3.9375 0 7 C-0.99 7.33 -1.98 7.66 -3 8 C-1.125 2.25 -1.125 2.25 0 0 Z " fill="#CECDCE" transform="translate(287,775)"/>
<path d="M0 0 C0.99 0.33 1.98 0.66 3 1 C-0.20336822 3.83374881 -2.78087253 4.5205537 -7 5 C-2.25 1.125 -2.25 1.125 0 0 Z " fill="#D6D6D7" transform="translate(736,751)"/>
<path d="M0 0 C0.99 0 1.98 0 3 0 C2.74438677 2.3431213 2.40729228 4.67843403 2 7 C1.01 7.495 1.01 7.495 0 8 C0 5.36 0 2.72 0 0 Z " fill="#2A2B29" transform="translate(780,741)"/>
<path d="M0 0 C0 3 0 3 -1.3125 4.38671875 C-2.875 5.59114583 -4.4375 6.79557292 -6 8 C-6.99 7.34 -7.98 6.68 -9 6 C-8.071875 5.566875 -7.14375 5.13375 -6.1875 4.6875 C-3.52815927 3.27961373 -1.91894095 2.23876444 0 0 Z " fill="#CCCBCC" transform="translate(644,712)"/>
<path d="M0 0 C1 4 1 4 -0.4375 6.75 C-1.2109375 7.86375 -1.2109375 7.86375 -2 9 C-2.99 8.67 -3.98 8.34 -5 8 C-3.35 5.36 -1.7 2.72 0 0 Z " fill="#181819" transform="translate(580,593)"/>
<path d="M0 0 C0.66 0.33 1.32 0.66 2 1 C0.49760034 4.61941735 -0.82145293 7.7321794 -3 11 C-4 8 -4 8 -3.22265625 5.95703125 C-2.83980469 5.24933594 -2.45695312 4.54164063 -2.0625 3.8125 C-1.68222656 3.09707031 -1.30195313 2.38164063 -0.91015625 1.64453125 C-0.60980469 1.10183594 -0.30945313 0.55914063 0 0 Z " fill="#E6E5E6" transform="translate(383,576)"/>
<path d="M0 0 C0.66 0.33 1.32 0.66 2 1 C1.67 2.98 1.34 4.96 1 7 C0.01 7 -0.98 7 -2 7 C-1.34 4.69 -0.68 2.38 0 0 Z " fill="#2C2C2D" transform="translate(524,571)"/>
<path d="M0 0 C0.66 0 1.32 0 2 0 C0.80100302 3.0831351 -0.47700477 6.06279492 -2 9 C-2.6875 7.3125 -2.6875 7.3125 -3 5 C-1.6875 2.25 -1.6875 2.25 0 0 Z " fill="#131315" transform="translate(596,569)"/>
<path d="M0 0 C-0.33 0.99 -0.66 1.98 -1 3 C-3.5625 4.1875 -3.5625 4.1875 -6 5 C-6.66 4.34 -7.32 3.68 -8 3 C-2.25 0 -2.25 0 0 0 Z " fill="#19191A" transform="translate(275,996)"/>
<path d="M0 0 C4.455 1.98 4.455 1.98 9 4 C4.82412255 5.39195915 2.86525224 3.82323219 -1 2 C-0.67 1.34 -0.34 0.68 0 0 Z " fill="#131212" transform="translate(941,974)"/>
<path d="M0 0 C0.66 0.33 1.32 0.66 2 1 C1.01 2.485 1.01 2.485 0 4 C-3.625 4.6875 -3.625 4.6875 -7 5 C-4.702779 3.25728062 -2.40133271 1.60088848 0 0 Z " fill="#272727" transform="translate(331,964)"/>
<path d="M0 0 C0.66 0.99 1.32 1.98 2 3 C0.625 5.5 0.625 5.5 -1 8 C-1.66 8 -2.32 8 -3 8 C-1.125 2.25 -1.125 2.25 0 0 Z " fill="#E4E3E5" transform="translate(360,624)"/>
</svg>
