<?xml version="1.0" encoding="UTF-8"?>
<svg version="1.1" xmlns="http://www.w3.org/2000/svg" width="1254" height="1254">

<path d="M0 0 C3.08866523 2.89867061 4.77783254 6.15681128 6.625 9.921875 C6.9678302 10.60904602 7.3106604 11.29621704 7.66387939 12.00421143 C8.78200197 14.24984409 9.8911536 16.4997744 11 18.75 C11.77927805 20.32048341 12.55890312 21.89079468 13.33886719 23.4609375 C17.80308882 32.46482059 22.18254097 41.50549943 26.47460938 50.59277344 C31.32814458 60.80527107 36.42917246 70.89421487 41.5 81 C47.33776729 92.63732979 53.1687332 104.27070364 58.73461914 116.04125977 C63.55161993 126.21406093 68.50036349 136.32263478 73.4375 146.4375 C73.88118927 147.34702423 74.32487854 148.25654846 74.78201294 149.19363403 C76.06115757 151.81555568 77.34096514 154.4371524 78.62109375 157.05859375 C79.00296844 157.84104462 79.38484314 158.62349548 79.77828979 159.42965698 C81.52576105 163.00515411 83.28753496 166.57129182 85.08618164 170.12133789 C86.28650599 172.5124047 87.37819094 174.88435819 88.43212891 177.34887695 C90.4828123 182.12433167 92.78255782 186.76025328 95.0859375 191.41796875 C96.10275194 193.48317094 97.11942967 195.54844044 98.13598633 197.61376953 C98.92943954 199.22375824 98.92943954 199.22375824 99.73892212 200.86627197 C107.40805314 216.43456074 115.03990947 232.00537289 122.25927734 247.7878418 C126.84495701 257.77142205 131.66768481 267.63400355 136.5 277.5 C142.4989218 289.74870227 148.38660437 302.03058812 154.078125 314.42578125 C158.57876016 324.18660462 163.27738882 333.84509611 168 343.5 C173.85803097 355.47664211 179.59760208 367.49168401 185.16796875 379.60546875 C189.3298358 388.62806273 193.64508309 397.56962493 198 406.5 C203.57313298 417.92970733 209.01666224 429.40690632 214.34326172 440.95385742 C219.29312266 451.67291439 224.39795445 462.31418581 229.52832031 472.94775391 C232.02620176 478.12833018 234.51441568 483.31351479 237 488.5 C237.66733154 489.88795776 237.66733154 489.88795776 238.34814453 491.30395508 C240.26867258 495.31209345 242.15665653 499.3244392 243.93359375 503.3984375 C246.43395706 509.0773139 249.26080243 514.59035818 252.0625 520.125 C253.11783111 522.2099538 254.17126858 524.29586735 255.22265625 526.3828125 C255.91500366 527.75010498 255.91500366 527.75010498 256.62133789 529.14501953 C257.88904696 531.77023466 259.03881223 534.42718238 260.17478943 537.11129761 C261.71515277 540.63680738 263.42972172 544.07829624 265.125 547.53125 C265.51316895 548.32599731 265.90133789 549.12074463 266.30126953 549.9395752 C267.53258341 552.46050099 268.76601823 554.98037916 270 557.5 C271.62693411 560.8219754 273.2516348 564.14502937 274.875 567.46875 C275.24383301 568.21999146 275.61266602 568.97123291 275.99267578 569.74523926 C277.60489069 573.04657359 279.17459756 576.34973163 280.609375 579.73242188 C281.78068302 582.4846667 283.02181387 585.14699578 284.375 587.8125 C284.80296875 588.66070313 285.2309375 589.50890625 285.671875 590.3828125 C286.32929687 591.67832031 286.32929687 591.67832031 287 593 C289.8463386 598.60896136 292.52159339 604.21705124 295 610 C296.6280619 613.35289671 298.31333208 616.67627203 300 620 C302.84616142 625.6086122 305.52796905 631.21439565 308 637 C309.46217952 640.01923329 310.97974605 643.0096655 312.5 646 C313.28325055 647.54065124 314.0645318 649.08230539 314.84375 650.625 C315.35711914 651.63433594 315.35711914 651.63433594 315.88085938 652.6640625 C317.05006972 655.10450853 318.09974657 657.58612146 319.15734863 660.07641602 C320.68769246 663.56984757 322.38208972 666.98314826 324.0625 670.40625 C324.45013016 671.19955719 324.83776031 671.99286438 325.23713684 672.81021118 C326.06305451 674.50029499 326.88967614 676.19003492 327.71694946 677.87945557 C329.88157611 682.30055991 332.04043954 686.72447566 334.19921875 691.1484375 C334.83388313 692.44876419 334.83388313 692.44876419 335.48136902 693.77536011 C339.0492375 701.09018046 342.57496503 708.42409594 346.07275391 715.77270508 C348.46972851 720.80635174 350.88341465 725.83130017 353.31640625 730.84765625 C359.69623702 744.00221684 365.97410265 757.19296861 372.10058594 770.46826172 C376.02748985 778.95670866 380.04803499 787.39547287 384.125 795.8125 C384.42168579 796.42505646 384.71837158 797.03761292 385.02404785 797.66873169 C386.47988149 800.67368472 387.93659552 803.67820965 389.39355469 806.68261719 C395.03350446 818.32937061 400.5922622 830.01500339 406.12109375 841.71484375 C407.64309285 844.93496029 409.16525068 848.15500174 410.6875 851.375 C411.26029694 852.5869101 411.26029694 852.5869101 411.84466553 853.82330322 C418.10302173 867.05897665 424.44828087 880.25042955 430.8737793 893.40576172 C440.32622624 912.77825336 440.32622624 912.77825336 441 918 C436.7293528 916.69412254 433.00073906 915.05257859 429.10546875 912.875 C427.99389404 912.2560083 426.88231934 911.6370166 425.73706055 910.99926758 C424.55375415 910.33305734 423.37056986 909.66663019 422.1875 909 C420.96213265 908.31445195 419.73662698 907.62915109 418.51098633 906.9440918 C411.35353115 902.93424264 404.25443821 898.8344127 397.20825195 894.63208008 C390.75220533 890.80350345 384.16085777 887.23556008 377.55981445 883.66455078 C370.9520454 880.08385201 364.40374563 876.4100304 357.875 872.6875 C348.73522665 867.48414816 339.49452709 862.48529554 330.20944214 857.54785156 C322.0525022 853.20781701 313.96348014 848.7657143 305.9375 844.1875 C298.39769321 839.88744889 290.8051138 835.73205469 283.10644531 831.72387695 C277.26085034 828.67731478 271.46703974 825.54493418 265.6875 822.375 C256.8258919 817.51792026 247.92181527 812.74514927 239 808 C229.43834327 802.9140092 219.9031732 797.78426964 210.40625 792.578125 C201.98869526 787.97322741 193.51938553 783.46675203 185.04800415 778.96200562 C176.90017009 774.62853048 168.77609495 770.25586659 160.6875 765.8125 C151.96011062 761.02149989 143.14395756 756.41713552 134.29980469 751.84594727 C126.73874247 747.92860913 119.25074582 743.89431406 111.78759766 739.79418945 C102.32264551 734.60500467 92.78525421 729.55486817 83.24804688 724.50024414 C76.66992385 721.01340429 70.09460365 717.52187751 63.53515625 714 C62.641632 713.52028748 62.641632 713.52028748 61.73005676 713.03088379 C58.8215243 711.46887249 55.91361444 709.90570883 53.00610352 708.34179688 C47.41807442 705.34253337 41.8164491 702.37553468 36.1796875 699.46875 C35.10533447 698.91421143 34.03098145 698.35967285 32.92407227 697.78833008 C30.89868104 696.74631437 28.87064516 695.70941798 26.83959961 694.6784668 C25.95022705 694.22125244 25.06085449 693.76403809 24.14453125 693.29296875 C23.36440674 692.8961792 22.58428223 692.49938965 21.78051758 692.09057617 C20 691 20 691 19 689 C19.71841064 688.6282666 20.43682129 688.2565332 21.17700195 687.87353516 C39.54415374 678.36788783 39.54415374 678.36788783 57.85693359 668.75805664 C62.2347631 666.44724901 66.62225648 664.15643092 71.01953125 661.8828125 C81.76600666 656.32465997 92.45276935 650.69442259 103.02832031 644.81713867 C108.65557633 641.70315387 114.34715156 638.76432512 120.11743164 635.92553711 C125.82826449 633.11103131 131.4536146 630.14738111 137.06713867 627.14404297 C140.49003882 625.31553666 143.92157472 623.50464436 147.375 621.734375 C148.34566406 621.23502441 148.34566406 621.23502441 149.3359375 620.72558594 C151 620 151 620 153 620 C150.21131135 612.61737449 146.93270387 605.53759926 143.459198 598.45452881 C141.89368475 595.26041932 140.34081384 592.06018818 138.7890625 588.859375 C138.47128342 588.2039975 138.15350433 587.54862 137.82609558 586.87338257 C134.61943241 580.24266573 131.52161154 573.56360504 128.4375 566.875 C124.20802174 557.70845991 119.90022196 548.58582087 115.5 539.5 C109.87570718 527.88444646 104.42283403 516.19659773 99.00390625 504.484375 C96.41829923 498.89678597 93.81682269 493.31715258 91.1875 487.75 C90.87522461 487.08548828 90.56294922 486.42097656 90.24121094 485.73632812 C88.29991527 481.63781513 86.28999135 477.57718246 84.25158691 473.52604675 C80.09800551 465.26865817 76.0992804 456.9492667 72.18649292 448.5753479 C70.45676745 444.87373011 68.72034378 441.17525542 66.984375 437.4765625 C66.64208359 436.74691788 66.29979218 436.01727325 65.9471283 435.26551819 C62.53931551 428.00690922 59.08028862 420.77319953 55.6081543 413.54516602 C52.48877406 407.04520623 49.43783266 400.51666436 46.4375 393.9609375 C45.0973849 391.06037816 45.0973849 391.06037816 43.5625 388.7265625 C42.18255034 386.31855034 41.1982244 384.0707687 40.19921875 381.4921875 C37.74651584 375.2005219 34.78090477 369.18630643 31.8125 363.125 C27.81686493 354.90593556 23.89041737 346.66843625 20.1875 338.3125 C17.55921687 332.39323177 14.85254887 326.53395754 11.9375 320.75 C11.66557815 320.19589463 11.3936563 319.64178926 11.1134944 319.07089281 C9.50786924 315.83896403 7.86875215 312.79809697 5.89740753 309.76551056 C-1.91523996 297.39067788 -1.09992134 284.21639002 -0.92852497 270.03368211 C-0.89359695 266.40067291 -0.90569467 262.76775843 -0.91174316 259.1346283 C-0.91591437 252.85784884 -0.89106541 246.58174064 -0.84584045 240.30513 C-0.78049865 231.23060928 -0.75995599 222.15640926 -0.74993652 213.08167881 C-0.73247804 198.35456207 -0.67937698 183.62780218 -0.60351562 168.90087891 C-0.52995177 154.60499848 -0.47338916 140.30921538 -0.43945312 126.01318359 C-0.43735134 125.13024948 -0.43524955 124.24731537 -0.43308407 123.33762568 C-0.42264289 118.90768728 -0.41253343 114.47774819 -0.40258884 110.04780865 C-0.31981272 73.36495396 -0.17904654 36.6825049 0 0 Z " fill="#010101" transform="translate(672,156)"/>
<path d="M0 0 C0.33 0 0.66 0 1 0 C1.18334561 37.6909942 1.32419608 75.3819209 1.40852264 113.07327127 C1.41852759 117.52899147 1.42888223 121.9847108 1.43945312 126.44042969 C1.44155161 127.32743592 1.44365009 128.21444216 1.44581217 129.12832737 C1.48056717 143.46687752 1.54361278 157.80516953 1.61722237 172.14356685 C1.69218994 186.8699496 1.73650294 201.59619771 1.75270796 216.32276344 C1.76365302 225.40075311 1.79814622 234.47801302 1.86333174 243.55577791 C1.90581192 249.79145719 1.91835777 256.02676247 1.90801102 262.26257575 C1.90291618 265.85383002 1.91039582 269.44381461 1.9536438 273.03483963 C2.13294021 288.68404159 1.74336363 300.74025938 -7 314 C-7.839484 315.66148206 -8.6577462 317.33437945 -9.43017578 319.02807617 C-9.76526154 319.73509674 -10.10034729 320.44211731 -10.44558716 321.17056274 C-10.77549652 321.87095673 -11.10540588 322.57135071 -11.4453125 323.29296875 C-11.81816376 324.08037445 -12.19101501 324.86778015 -12.57516479 325.67904663 C-13.35940607 327.33543216 -14.14294321 328.99215126 -14.92578125 330.64920044 C-16.99101351 335.02052815 -19.06156491 339.38933241 -21.1328125 343.7578125 C-21.54492981 344.62710892 -21.95704712 345.49640533 -22.38165283 346.39204407 C-26.7774124 355.65431978 -31.23779483 364.88506866 -35.72314453 374.10424805 C-38.27406275 379.36008002 -40.72827366 384.61850192 -43 390 C-43.81734695 391.67456448 -44.6492613 393.34215022 -45.5 395 C-46.92416312 397.8144176 -48.25636397 400.59818259 -49.5 403.5 C-50.74363603 406.40181741 -52.07583688 409.1855824 -53.5 412 C-54.9033088 414.77330464 -56.21855798 417.51313612 -57.4375 420.375 C-59.28358508 424.6579174 -61.37950516 428.78486428 -63.5 432.9375 C-64.5233368 435.02681263 -65.48772807 437.14577793 -66.39892578 439.28637695 C-67.86917005 442.73717065 -69.46928426 446.11025862 -71.1171875 449.48046875 C-71.72308034 450.72382892 -72.32887015 451.96723931 -72.93457031 453.21069336 C-73.25026978 453.8574704 -73.56596924 454.50424744 -73.89123535 455.17062378 C-79.11448192 465.87912181 -84.26028588 476.61775799 -89.25 487.4375 C-94.92341923 499.73598012 -100.71857756 511.97403874 -106.53973389 524.20318604 C-112.18269201 536.05847728 -117.79654876 547.92672458 -123.375 559.8125 C-128.7377945 571.23787212 -134.1586569 582.63278166 -139.66552734 593.98950195 C-141.11817745 596.98930902 -142.56043027 599.99389648 -144 603 C-144.56041992 604.15677246 -145.12083984 605.31354492 -145.69824219 606.50537109 C-146.24899414 607.66246582 -146.79974609 608.81956055 -147.3671875 610.01171875 C-147.8710498 611.06190186 -148.37491211 612.11208496 -148.89404297 613.1940918 C-150.24446434 616.11756025 -150.24446434 616.11756025 -150 620 C-149.47842819 620.26593964 -148.95685638 620.53187927 -148.41947937 620.80587769 C-142.88477647 623.62822729 -137.35096786 626.45232486 -131.81762695 629.27734375 C-129.76511159 630.32497346 -127.71238455 631.37218859 -125.65942383 632.41894531 C-113.06738058 638.8397474 -100.516208 645.32898573 -88.02017212 651.93463135 C-83.1926785 654.48048391 -78.34512986 656.98793645 -73.5 659.5 C-65.368117 663.72225229 -57.24753047 667.96466148 -49.14331055 672.23974609 C-39.11359778 677.52764856 -29.05548639 682.76132626 -19 688 C-19 688.99 -19 689.98 -19 691 C-19.58152832 691.30067383 -20.16305664 691.60134766 -20.76220703 691.91113281 C-31.45725541 697.44803323 -42.1268604 703.02260676 -52.6875 708.8125 C-71.75276209 719.26470508 -90.9593776 729.45377558 -110.16497803 739.64498901 C-123.47324077 746.70810154 -136.74644841 753.83466719 -150 761 C-151.02029297 761.55139648 -152.04058594 762.10279297 -153.09179688 762.67089844 C-161.84823544 767.40448365 -170.60446302 772.1384482 -179.3359375 776.91796875 C-190.50268057 783.03013907 -201.71116234 789.05776134 -212.94934082 795.03717041 C-222.88371865 800.32403763 -232.78241995 805.6716641 -242.65234375 811.078125 C-246.38727266 813.12303144 -250.13015493 815.15242002 -253.87890625 817.171875 C-263.68493131 822.45582732 -273.44947853 827.79272492 -283.125 833.3125 C-292.63657441 838.73599096 -302.26811408 843.90576289 -311.94311523 849.02893066 C-320.23918386 853.42468682 -328.47230924 857.90402541 -336.625 862.5625 C-344.92771093 867.30669661 -353.30886182 871.88202189 -361.75 876.375 C-373.26007439 882.5035951 -384.67953726 888.78137345 -396.06640625 895.13671875 C-401.02463092 897.90385034 -405.99130803 900.65502184 -410.96484375 903.39453125 C-411.6276384 903.75965317 -412.29043304 904.12477509 -412.97331238 904.5009613 C-415.57339019 905.93291333 -418.17368304 907.36447 -420.77487183 908.79440308 C-422.55607096 909.77361696 -424.3366416 910.75397381 -426.1171875 911.734375 C-427.13409668 912.29350586 -428.15100586 912.85263672 -429.19873047 913.42871094 C-431.07074733 914.47876328 -432.91952511 915.5713268 -434.74267578 916.70410156 C-437 918 -437 918 -439 918 C-436.8408028 910.81033271 -433.85789591 904.2582106 -430.5362854 897.53353882 C-428.94494514 894.30987707 -427.37362681 891.07646519 -425.80078125 887.84375 C-425.31761696 886.85202034 -425.31761696 886.85202034 -424.82469177 885.84025574 C-421.73925292 879.49343318 -418.76562155 873.09687452 -415.8125 866.6875 C-410.55454095 855.29702136 -405.20199403 843.95377627 -399.8125 832.625 C-399.41082611 831.78049286 -399.00915222 830.93598572 -398.5953064 830.06588745 C-396.95851784 826.62477536 -395.32145731 823.18379286 -393.68400574 819.74299622 C-389.32432715 810.58182965 -384.97129175 801.4175252 -380.625 792.25 C-380.06037552 791.05937454 -380.06037552 791.05937454 -379.48434448 789.84469604 C-374.72993168 779.81544164 -370.02500323 769.76565249 -365.375 759.6875 C-360.37474954 748.85230663 -355.19831244 738.11042899 -349.96868896 727.38485718 C-345.37868189 717.96728789 -340.88163949 708.51677888 -336.5 699 C-331.74220531 688.67012722 -326.8500909 678.41407574 -321.875 668.1875 C-321.5309613 667.48023773 -321.18692261 666.77297546 -320.8324585 666.04428101 C-319.47864668 663.26172918 -318.12452827 660.47932688 -316.76992798 657.69715881 C-314.03519362 652.07836824 -311.32058145 646.45019084 -308.625 640.8125 C-308.21137207 639.94794189 -307.79774414 639.08338379 -307.37158203 638.19262695 C-304.81577827 632.83794798 -302.27918532 627.47438566 -299.75167847 622.10630798 C-298.15297751 618.71143795 -296.55185031 615.31771371 -294.9508667 611.92391968 C-293.78302803 609.44510419 -292.61922649 606.96442171 -291.45556641 604.48364258 C-287.73117978 596.57271138 -283.92906523 588.78423644 -279.61425781 581.17431641 C-277.8553758 577.7156074 -276.46509537 574.19601492 -275.05072021 570.58630371 C-273.4180033 566.56743955 -271.51596122 562.6953107 -269.59375 558.80859375 C-269.18717163 557.97844254 -268.78059326 557.14829132 -268.36169434 556.29298401 C-267.07785914 553.67280625 -265.78926754 551.05500843 -264.5 548.4375 C-263.21143118 545.81608746 -261.92394845 543.19415319 -260.63830566 540.57130432 C-259.84320383 538.94973734 -259.04637302 537.32901643 -258.24743652 535.70933533 C-256.41036812 531.96770665 -254.63373999 528.21280874 -252.95507812 524.3972168 C-251.19381234 520.39443613 -249.29254196 516.48424055 -247.3125 512.5859375 C-246.6074425 511.18618976 -245.90304091 509.78611149 -245.19921875 508.38574219 C-244.83747559 507.66608276 -244.47573242 506.94642334 -244.10302734 506.20495605 C-240.68405722 499.37042116 -237.34774808 492.49460991 -234 485.625 C-233.5902594 484.78473267 -233.1805188 483.94446533 -232.75836182 483.07873535 C-226.70424853 470.65520558 -220.75565116 458.18644708 -214.9012146 445.66772461 C-209.80401283 434.77079807 -204.59120339 423.93509495 -199.3125 413.125 C-194.30978604 402.87977349 -189.38585743 392.61039151 -184.625 382.25 C-179.01997348 370.05381957 -173.15117459 357.99636533 -167.24749756 345.94274902 C-162.30319376 335.84328248 -157.43084488 325.72477434 -152.75 315.5 C-145.93666525 300.63608314 -138.70118396 285.97927983 -131.48339844 271.30859375 C-124.89639797 257.91579225 -118.40922899 244.4787709 -112 231 C-111.58975586 230.13744598 -111.17951172 229.27489197 -110.75683594 228.38619995 C-108.41352789 223.45764014 -106.07361042 218.52747748 -103.73501587 213.59667969 C-82.68871079 169.23077717 -82.68871079 169.23077717 -76.01831055 156.06005859 C-74.00173616 152.06056321 -72.05541967 148.03182144 -70.13671875 143.984375 C-69.63857666 142.9339502 -69.14043457 141.88352539 -68.62719727 140.80126953 C-67.64075656 138.71552378 -66.65804914 136.62800748 -65.67944336 134.53857422 C-65.23093018 133.58998535 -64.78241699 132.64139648 -64.3203125 131.6640625 C-63.92086426 130.81279785 -63.52141602 129.9615332 -63.10986328 129.08447266 C-62 127 -62 127 -60 125 C-59.43554035 123.66342975 -58.92295523 122.30474831 -58.4375 120.9375 C-56.54392637 116.0269266 -54.19335182 111.49019158 -51.6875 106.875 C-48.74897772 101.44204655 -46.02833085 96.00268575 -43.625 90.3125 C-40.90539252 83.89300802 -37.89395699 77.65978955 -34.75 71.4375 C-31.06414725 64.14095208 -27.44506442 56.82149445 -23.9375 49.4375 C-18.79354043 38.61433757 -13.5589367 27.83627911 -8.3125 17.0625 C-7.90047333 16.21630096 -7.48844666 15.37010193 -7.06393433 14.4982605 C-4.71032468 9.66500219 -2.35562326 4.83227722 0 0 Z " fill="#010100" transform="translate(581,156)"/>
<path d="M0 0 C3.3 0 6.6 0 10 0 C10 12.54 10 25.08 10 38 C12.97 38.99 12.97 38.99 16 40 C20.68303676 43.01896739 24.30799693 46.62540201 26 52 C26.84391392 62.00446346 26.84391392 62.00446346 24.91796875 66.55859375 C23.78452974 69.5730592 24.14460585 70.92521262 25 74 C26.13541162 76.03944566 26.13541162 76.03944566 27.625 77.93359375 C28.16769531 78.66642578 28.71039062 79.39925781 29.26953125 80.15429688 C29.84058594 80.90775391 30.41164063 81.66121094 31 82.4375 C35.40300285 88.29591071 39.51665462 94.27883774 43.44772339 100.46191406 C47.4374619 106.72405022 51.61018409 112.85571583 55.7958374 118.98791504 C59.46348801 124.36754014 63.10769808 129.76315856 66.75415039 135.15716553 C67.89735988 136.84817689 69.04141189 138.53861859 70.18554688 140.22900391 C88.45366998 167.33031239 103.02172509 196.41027461 117.74847412 225.52624512 C118.96457375 227.92997678 120.1825114 230.33276877 121.40087891 232.73535156 C123.213702 236.31203556 125.02134674 239.89128019 126.82373047 243.47323608 C127.47839544 244.77377654 128.1341424 246.07377295 128.79101562 247.37319946 C129.68378606 249.14126731 130.57058992 250.91234426 131.45703125 252.68359375 C131.95178955 253.66900146 132.44654785 254.65440918 132.95629883 255.66967773 C134 258 134 258 134 260 C135.11375 259.896875 136.2275 259.79375 137.375 259.6875 C143.52827591 259.69842944 149.15316206 262.40532952 153.67578125 266.52734375 C158.10747341 271.66496917 159.46946682 275.7410642 159.3125 282.40234375 C158.65049103 287.9052933 156.26045012 292.15589147 152.125 295.8125 C145.64262154 300.35016492 140.88860591 301.96202511 133 301 C129.77764606 299.76964668 127.72737302 298.81465778 125.4375 296.25 C124.963125 295.8375 124.48875 295.425 124 295 C120.10137753 295.43476565 117.23449247 296.77518517 113.8515625 298.703125 C112.85817871 299.26459229 111.86479492 299.82605957 110.84130859 300.40454102 C109.77992676 301.01354248 108.71854492 301.62254395 107.625 302.25 C106.51592285 302.87898193 105.4068457 303.50796387 104.26416016 304.15600586 C101.96162475 305.46236832 99.66069367 306.77156231 97.36132812 308.08349609 C93.3124679 310.39200515 89.25371477 312.68265873 85.1940918 314.97216797 C78.50806133 318.74395306 71.82966018 322.52922179 65.15234375 326.31640625 C55.68382984 331.68371181 46.20464802 337.03181727 36.6875 342.3125 C35.41483276 343.0243042 35.41483276 343.0243042 34.11645508 343.75048828 C33.33939209 344.17958496 32.5623291 344.60868164 31.76171875 345.05078125 C30.740177 345.61792847 30.740177 345.61792847 29.69799805 346.1965332 C28 347 28 347 26 347 C26.04640625 347.9178125 26.0928125 348.835625 26.140625 349.78125 C26.53429336 363.16597434 26.53429336 363.16597434 22 369 C19.625 371.3125 19.625 371.3125 17 373 C16.13375 373.5775 15.2675 374.155 14.375 374.75 C8.9021942 376.77696511 3.20775639 377.26793073 -2.3125 375.0859375 C-7.59350318 371.98534851 -11.22804928 368.03762981 -14.3125 362.75 C-15.60591699 357.57633204 -15.68872038 352.06616113 -14 347 C-14.71953857 346.89002686 -15.43907715 346.78005371 -16.18041992 346.66674805 C-19.21433642 345.94931572 -21.40488646 344.86701444 -24.11328125 343.33203125 C-25.10134766 342.77580078 -26.08941406 342.21957031 -27.10742188 341.64648438 C-28.16509766 341.04126953 -29.22277344 340.43605469 -30.3125 339.8125 C-31.97442383 338.87180664 -31.97442383 338.87180664 -33.66992188 337.91210938 C-42.14193103 333.10185347 -50.55843056 328.19703993 -58.95825195 323.26196289 C-67.28801016 318.37933071 -75.70960226 313.67244726 -84.16088867 309.00390625 C-91.04405761 305.17609131 -97.76010812 301.16074004 -104.23242188 296.66699219 C-106.14077407 295.34625682 -106.14077407 295.34625682 -109 294 C-111.26641809 294.45091047 -111.26641809 294.45091047 -113 296 C-113.57878906 296.42539062 -114.15757812 296.85078125 -114.75390625 297.2890625 C-115.35074219 297.72992187 -115.94757813 298.17078125 -116.5625 298.625 C-121.56299712 301.75380266 -126.25438704 302.0454172 -132 301 C-137.92336662 298.57725405 -141.7646169 294.66602829 -145.07421875 289.23828125 C-147.27820828 283.90964834 -147.08769545 276.86306613 -145.0546875 271.51171875 C-142.07870779 266.54239413 -138.51999853 263.11999935 -133.1875 260.75 C-129.30713147 259.83697211 -125.97934752 259.86278112 -122 260 C-121.81824219 259.39671875 -121.63648438 258.7934375 -121.44921875 258.171875 C-121.19785156 257.37265625 -120.94648438 256.5734375 -120.6875 255.75 C-120.32205078 254.56664062 -120.32205078 254.56664062 -119.94921875 253.359375 C-119 251 -119 251 -117.55615234 249.137146 C-115.9535158 246.9361608 -115.08943325 244.99359886 -114.15234375 242.44628906 C-111.94942134 236.74167917 -109.30483929 231.32132889 -106.5625 225.859375 C-106.04171875 224.81589905 -105.5209375 223.7724231 -104.984375 222.69732666 C-103.88363896 220.49450001 -102.78090233 218.29267203 -101.67626953 216.09179688 C-100.02694156 212.80371047 -98.38605367 209.51151676 -96.74609375 206.21875 C-78.6847505 170.06855271 -78.6847505 170.06855271 -68.25 154.125 C-67.39801025 152.80363037 -67.39801025 152.80363037 -66.52880859 151.45556641 C-60.09332131 141.51551954 -53.5059783 131.67398247 -46.90551758 121.84301758 C-44.92661715 118.89051335 -42.95695962 115.93198444 -40.98828125 112.97265625 C-37.21572099 107.31106752 -33.39697915 101.68226501 -29.5625 96.0625 C-28.91869385 95.11173584 -28.2748877 94.16097168 -27.61157227 93.18139648 C-24.80087623 89.04093151 -21.98481183 84.92583324 -18.9609375 80.9375 C-18.5270874 80.35476318 -18.0932373 79.77202637 -17.64624023 79.17163086 C-16.53018234 77.68588302 -15.38919448 76.21894979 -14.24609375 74.75390625 C-12.64075906 71.90970615 -12.64075906 71.90970615 -13.72265625 68.21484375 C-14.67934899 65.18863824 -14.67934899 65.18863824 -16 64 C-16.86637121 56.38592997 -15.35258148 49.79725187 -10.6875 43.6875 C-7.92184143 40.92184143 -5.61509187 39.44603675 -2 38 C-1.34 38 -0.68 38 0 38 C0 25.46 0 12.92 0 0 Z " fill="#060605" transform="translate(621,466)"/>
<path d="M0 0 C6 0 6 0 7.68789673 1.43057251 C8.12943085 2.10397675 8.57096497 2.77738098 9.02587891 3.47119141 C9.54219879 4.23635071 10.05851868 5.00151001 10.59048462 5.78985596 C11.13039032 6.63521912 11.67029602 7.48058228 12.2265625 8.3515625 C13.0984169 9.6616629 13.0984169 9.6616629 13.98788452 10.99822998 C15.88670064 13.86130123 17.75570961 16.74258322 19.625 19.625 C20.92905788 21.60365077 22.23505934 23.58102192 23.54296875 25.55712891 C26.15898066 29.51520626 28.764142 33.48007925 31.36035156 37.45117188 C34.50549171 42.2565039 37.68758504 47.03525864 40.8984375 51.796875 C57.36590021 76.23474138 72.48045245 101.03953211 85.95288086 127.24658203 C89.12124278 133.40831308 92.34837641 139.52230727 95.73168945 145.5690918 C96.9997079 147.99944014 97.99503265 150.45168087 99 153 C99.70204033 154.41861126 100.42631146 155.82642792 101.171875 157.22265625 C101.58655029 158.00310303 102.00122559 158.7835498 102.4284668 159.58764648 C103.08262573 160.81269897 103.08262573 160.81269897 103.75 162.0625 C104.64770466 163.7627204 105.54484048 165.46324126 106.44140625 167.1640625 C107.6449686 169.44304453 108.85003265 171.72087318 110.06982422 173.99121094 C110.95268707 175.63447938 111.82079096 177.28565454 112.6875 178.9375 C113.16574219 179.83339844 113.64398437 180.72929688 114.13671875 181.65234375 C115.122931 184.33430558 115.08863023 185.39170829 114 188 C112.68678142 189.6825613 111.35386936 191.34997172 110 193 C108.85782446 195.86144135 108.85782446 195.86144135 109.05932617 198.45532227 C109.11057259 201.56345812 108.90736401 204.01896064 108 207 C104.89988231 210.16452776 101.24393809 211.95867114 97.3125 213.9375 C95.69057739 214.81607666 95.69057739 214.81607666 94.03588867 215.71240234 C91.79608707 216.92122564 89.54695404 218.11291012 87.2890625 219.28759766 C83.33095254 221.34832978 79.42233937 223.49178571 75.51269531 225.64257812 C72.80102429 227.13130023 70.08089866 228.60359993 67.359375 230.07421875 C60.30920394 233.90222135 53.36045702 237.90360918 46.40625 241.90234375 C42.54223423 244.1227217 38.66584121 246.31972402 34.78125 248.50390625 C33.74411865 249.0872876 32.7069873 249.67066895 31.63842773 250.27172852 C29.63897731 251.3951597 27.6385417 252.5168399 25.63696289 253.63647461 C20.96313125 256.26485847 16.40509659 258.94070086 12 262 C8 260 4 258 0 256 C0 243.46 0 230.92 0 218 C5.28 217.01 10.56 216.02 16 215 C19.07084346 213.87453333 21.57556713 212.90189384 24.375 211.375 C25.03363037 211.03017578 25.69226074 210.68535156 26.37084961 210.33007812 C32.37579966 207.05130623 37.2794773 202.94865205 42 198 C42.94746094 197.06414062 42.94746094 197.06414062 43.9140625 196.109375 C55.63738056 183.81796664 60.72423227 167.07924706 60.53881836 150.36523438 C59.93055849 137.05974039 54.65700435 125.72276819 47 115 C46.46761719 114.25234375 45.93523438 113.5046875 45.38671875 112.734375 C33.98423463 98.36102032 17.27599917 93.70199982 0 90 C0 60.3 0 30.6 0 0 Z " fill="#F0E9DC" transform="translate(631,544)"/>
<path d="M0 0 C1.65 0 3.3 0 5 0 C5 29.7 5 59.4 5 90 C-0.28 91.32 -5.56 92.64 -11 94 C-31.57587856 102.69153491 -42.25318766 116.67160397 -51.1875 136.65625 C-52.45475733 141.87150131 -52.28738237 147.02932049 -52.25 152.375 C-52.25773438 153.47328125 -52.26546875 154.5715625 -52.2734375 155.703125 C-52.23023553 173.71834534 -44.5764802 188.59361667 -32.4765625 201.64453125 C-21.83112451 211.76945098 -9.18812968 215.63531172 5 218 C5 230.87 5 243.74 5 257 C-1 260 -1 260 -3 260 C-3 260.66 -3 261.32 -3 262 C-6.51132334 261.3291999 -9.15702784 259.90840043 -12.234375 258.11328125 C-13.78874268 257.21138062 -13.78874268 257.21138062 -15.37451172 256.29125977 C-17.04537842 255.31177368 -17.04537842 255.31177368 -18.75 254.3125 C-19.92308111 253.62968225 -21.09642504 252.94731586 -22.27001953 252.26538086 C-25.27659052 250.51673311 -28.2797713 248.76236156 -31.28161621 247.00561523 C-35.81102011 244.35496315 -40.34339198 241.70938148 -44.875 239.0625 C-45.83954102 238.49869629 -46.80408203 237.93489258 -47.79785156 237.35400391 C-55.06935327 233.10970926 -62.3651599 228.9094766 -69.67544556 224.73248291 C-71.4795737 223.69919882 -73.2804905 222.66050755 -75.08081055 221.62060547 C-80.08917212 218.73616852 -85.09162611 215.90053073 -90.29296875 213.375 C-100.47198344 208.3682181 -100.47198344 208.3682181 -102.0703125 204.2265625 C-102.30360679 201.41950539 -102.16937096 198.80547801 -102 196 C-103.59215977 191.87485878 -104.31754492 190.45497006 -108 188 C-107.45119951 182.19028445 -105.13969393 177.54762991 -102.625 172.375 C-102.22539063 171.529375 -101.82578125 170.68375 -101.4140625 169.8125 C-99.53497813 165.8936201 -97.64192845 162.46032966 -95 159 C-94.38621461 157.6047874 -93.82675095 156.18488559 -93.3125 154.75 C-90.74686535 148.14039104 -87.55281734 141.88368156 -84.32226562 135.58251953 C-83.37442311 133.73128649 -82.4309107 131.87783393 -81.49023438 130.02294922 C-68.45201719 104.32516966 -53.97016099 79.97715845 -38 56 C-36.62986021 53.93252233 -35.26006268 51.8648178 -33.890625 49.796875 C-25.59877491 37.29741501 -17.25693297 24.82555253 -8.70654297 12.50097656 C-7.50293839 10.73706737 -6.33298781 8.94996356 -5.18798828 7.14746094 C-4.59099121 6.2299707 -3.99399414 5.31248047 -3.37890625 4.3671875 C-2.84982666 3.5304248 -2.32074707 2.69366211 -1.77563477 1.83154297 C-1.18967529 1.22713379 -0.60371582 0.62272461 0 0 Z " fill="#F1E9DD" transform="translate(616,544)"/>
<path d="M0 0 C5.63974886 2.809731 9.46888653 8.00027307 12.25 13.5625 C13.1308739 22.22023205 12.54990554 29.4428274 7.25 36.5625 C5.08961941 38.64906349 2.8931353 40.15159561 0.25 41.5625 C-0.513125 41.995625 -1.27625 42.42875 -2.0625 42.875 C-9.13577585 44.68444266 -15.39064448 44.05391088 -21.75 40.5625 C-26.83294269 37.41591643 -29.80226565 33.15233924 -31.75 27.5625 C-32.78829105 20.85235037 -32.91516146 14.53337061 -29.375 8.5625 C-21.74026784 -1.00326511 -11.54419956 -4.21392683 0 0 Z " fill="#F0E9DD" transform="translate(636.75,677.4375)"/>
<path d="M0 0 C2 2 2 2 2.1953125 4.1640625 C2.16050781 5.38222656 2.16050781 5.38222656 2.125 6.625 C2.10695313 7.44226563 2.08890625 8.25953125 2.0703125 9.1015625 C2.04710937 9.72804688 2.02390625 10.35453125 2 11 C4.475 11.99 4.475 11.99 7 13 C7 13.66 7 14.32 7 15 C2.25 13.125 2.25 13.125 0 12 C0 8.04 0 4.08 0 0 Z " fill="#D4D1C7" transform="translate(515,739)"/>
<path d="M0 0 C0.66 0.99 1.32 1.98 2 3 C1.5390625 5.04296875 1.5390625 5.04296875 0.625 7.1875 C0.32851563 7.90292969 0.03203125 8.61835937 -0.2734375 9.35546875 C-0.51320313 9.89816406 -0.75296875 10.44085937 -1 11 C-1.66 11 -2.32 11 -3 11 C-3 11.66 -3 12.32 -3 13 C-3.99 13.33 -4.98 13.66 -6 14 C-4.16508812 9.25981099 -2.08058541 4.63586749 0 0 Z " fill="#CCC6BB" transform="translate(532,679)"/>
<path d="M0 0 C0.66 0.33 1.32 0.66 2 1 C0.121963 7.21196855 -2.23475981 11.56339706 -7 16 C-5.35433477 10.31497465 -2.70967216 5.23318364 0 0 Z " fill="#1A1A18" transform="translate(536,249)"/>
<path d="M0 0 C0.33 0 0.66 0 1 0 C1.78287497 6.10642479 -0.89174849 10.00459579 -4 15 C-4.66 15 -5.32 15 -6 15 C-4.40109514 9.80355921 -2.25861997 4.93387858 0 0 Z " fill="#DAD5CB" transform="translate(562,493)"/>
<path d="M0 0 C0.66 0.33 1.32 0.66 2 1 C-6.07744875 7.70387244 -6.07744875 7.70387244 -12 8 C-9.72254211 5.51017465 -7.37664762 3.89631003 -4.4375 2.25 C-3.65246094 1.80140625 -2.86742187 1.3528125 -2.05859375 0.890625 C-1.37925781 0.59671875 -0.69992187 0.3028125 0 0 Z " fill="#1A1A18" transform="translate(711,766)"/>
<path d="M0 0 C0.66 0 1.32 0 2 0 C3.03271642 2.09836004 4.05083717 4.20390891 5.0625 6.3125 C5.91521484 8.07013672 5.91521484 8.07013672 6.78515625 9.86328125 C8 13 8 13 7 16 C5.82558465 13.89983377 4.66035988 11.79541245 3.5 9.6875 C3.16613281 9.09259766 2.83226562 8.49769531 2.48828125 7.88476562 C0.93174886 5.04171156 0 3.29339012 0 0 Z " fill="#DEDBD1" transform="translate(964,760)"/>
<path d="M0 0 C4.00972202 3.67557852 6.45335415 7.18966896 9 12 C7.171875 11.77734375 7.171875 11.77734375 5 11 C3.515625 9.00390625 3.515625 9.00390625 2.25 6.5625 C1.82203125 5.75941406 1.3940625 4.95632813 0.953125 4.12890625 C0 2 0 2 0 0 Z " fill="#E5DED1" transform="translate(670,595)"/>
<path d="M0 0 C0.66 0 1.32 0 2 0 C2.69965443 1.26418246 3.38434763 2.53665402 4.0625 3.8125 C4.63677734 4.87404297 4.63677734 4.87404297 5.22265625 5.95703125 C6 8 6 8 5 11 C0 4.63636364 0 4.63636364 0 0 Z " fill="#D6D1C6" transform="translate(775,671)"/>
<path d="M0 0 C3 1 3 1 4.203125 2.77734375 C4.54859375 3.49019531 4.8940625 4.20304688 5.25 4.9375 C5.78367187 6.00291016 5.78367187 6.00291016 6.328125 7.08984375 C6.54984375 7.72019531 6.7715625 8.35054687 7 9 C6.67 9.66 6.34 10.32 6 11 C3.02753198 8.45217026 1.58464712 5.54659117 0 2 C0 1.34 0 0.68 0 0 Z " fill="#D1CBC1" transform="translate(764,649)"/>
<path d="M0 0 C5.07612318 -0.61528766 7.82982006 1.38341651 12 4 C12 4.33 12 4.66 12 5 C6.71201818 4.58525633 3.88309282 3.64775386 0 0 Z " fill="#EAE3D6" transform="translate(515,764)"/>
<path d="M0 0 C0.66 0 1.32 0 2 0 C2.69710731 1.28650706 3.38242876 2.57940665 4.0625 3.875 C4.63677734 4.95394531 4.63677734 4.95394531 5.22265625 6.0546875 C5.47917969 6.69664062 5.73570312 7.33859375 6 8 C5.67 8.66 5.34 9.32 5 10 C2.66063182 7.87330165 1.19346152 5.93775144 0 3 C0 2.01 0 1.02 0 0 Z " fill="#C7C3BA" transform="translate(727,570)"/>
<path d="M0 0 C2.45484649 2.13464912 3.68134222 3.70720291 4 7 C3.34 7.66 2.68 8.32 2 9 C1.34 8.67 0.68 8.34 0 8 C0 5.36 0 2.72 0 0 Z " fill="#11100F" transform="translate(673,158)"/>
<path d="M0 0 C4.97306516 0.49730652 8.63799813 1.55302334 13 4 C10.44855176 4.93045933 9.25993522 5.08564091 6.640625 4.22265625 C5.85171875 3.83980469 5.0628125 3.45695313 4.25 3.0625 C3.45078125 2.68222656 2.6515625 2.30195312 1.828125 1.91015625 C1.22484375 1.60980469 0.6215625 1.30945313 0 1 C0 0.67 0 0.34 0 0 Z " fill="#E8E3D8" transform="translate(921,971)"/>
<path d="M0 0 C-1 3 -1 3 -3.8125 4.75 C-7.13982105 6.05483179 -7.79584277 6.02866653 -11 5 C-9.54462432 4.16151196 -8.08559627 3.32936066 -6.625 2.5 C-5.81289063 2.0359375 -5.00078125 1.571875 -4.1640625 1.09375 C-2 0 -2 0 0 0 Z " fill="#D3CFC5" transform="translate(411,928)"/>
<path d="M0 0 C0 3.19610552 -0.54671542 4.41717626 -2 7.1875 C-2.37125 7.90292969 -2.7425 8.61835937 -3.125 9.35546875 C-3.41375 9.89816406 -3.7025 10.44085937 -4 11 C-5.19873962 7.05272168 -4.6900877 4.80269732 -3 1 C-2.01 0.67 -1.02 0.34 0 0 Z " fill="#DAD6CC" transform="translate(303,732)"/>
<path d="M0 0 C3 1 3 1 4.6875 3.9375 C6 7 6 7 6 9 C3 8 3 8 1.3125 5.0625 C0 2 0 2 0 0 Z " fill="#CBC7BD" transform="translate(735,711)"/>
<path d="M0 0 C3 3.625 3 3.625 3 7 C1.02 6.34 -0.96 5.68 -3 5 C-2.34 4.67 -1.68 4.34 -1 4 C-0.34786708 1.97536745 -0.34786708 1.97536745 0 0 Z " fill="#2F2D2A" transform="translate(1110,1067)"/>
<path d="M0 0 C0 0.66 0 1.32 0 2 C-5.17578125 5.22265625 -5.17578125 5.22265625 -7 6 C-7.99 5.67 -8.98 5.34 -10 5 C-3.63636364 0 -3.63636364 0 0 0 Z " fill="#D4CFC6" transform="translate(467,898)"/>
<path d="M0 0 C0.6875 1.6875 0.6875 1.6875 1 4 C-0.3125 6.75 -0.3125 6.75 -2 9 C-2.66 9 -3.32 9 -4 9 C-2.94124926 5.59687262 -1.99097846 2.98646769 0 0 Z " fill="#CCC7BF" transform="translate(519,706)"/>
<path d="M0 0 C0.66 0.66 1.32 1.32 2 2 C-1.51187196 4.40814077 -3.72656908 5.36629408 -8 5 C-5.44008376 2.98863724 -2.95409701 1.37154504 0 0 Z " fill="#E1DBD0" transform="translate(698,785)"/>
<path d="M0 0 C1.39746302 4.19238905 -0.15968125 6.10701803 -2 10 C-2.33 10.66 -2.66 11.32 -3 12 C-3.66 12 -4.32 12 -5 12 C-3.68938409 7.76570244 -2.05643741 3.92592596 0 0 Z " fill="#1D1C1B" transform="translate(551,218)"/>
<path d="M0 0 C0.33 0 0.66 0 1 0 C1 2.64 1 5.28 1 8 C-0.32 7.67 -1.64 7.34 -3 7 C-1.125 1.125 -1.125 1.125 0 0 Z " fill="#121312" transform="translate(580,159)"/>
<path d="M0 0 C0 0.99 0 1.98 0 3 C-3.22791555 5.1519437 -4.28400809 5.20086443 -8 5 C-5.44008376 2.98863724 -2.95409701 1.37154504 0 0 Z " fill="#DFDAD0" transform="translate(253,1013)"/>
<path d="M0 0 C0.103125 0.639375 0.20625 1.27875 0.3125 1.9375 C0.539375 2.618125 0.76625 3.29875 1 4 C1.99 4.33 2.98 4.66 4 5 C2.02 5.66 0.04 6.32 -2 7 C-1.34 4.69 -0.68 2.38 0 0 Z " fill="#2F2D2A" transform="translate(144,1067)"/>
<path d="M0 0 C0.66 0.33 1.32 0.66 2 1 C1.01 2.485 1.01 2.485 0 4 C-3.625 4.6875 -3.625 4.6875 -7 5 C-4.702779 3.25728062 -2.40133271 1.60088848 0 0 Z " fill="#D5D2CA" transform="translate(727,768)"/>
<path d="M0 0 C0.33 0.66 0.66 1.32 1 2 C-0.1875 3.5 -0.1875 3.5 -2 5 C-4.6875 5.1875 -4.6875 5.1875 -7 5 C-2.25 1.125 -2.25 1.125 0 0 Z " fill="#DDD8CD" transform="translate(663,751)"/>
</svg>
